<mxfile host="app.diagrams.net" modified="2023-11-09T12:11:02.332Z" agent="Mozilla/5.0 (Windows NT 10.0; Win64; x64) AppleWebKit/537.36 (KHTML, like Gecko) Chrome/119.0.0.0 Safari/537.36" etag="3AUoqDLDkuP6jlUSVC0p" version="22.1.0" type="device" pages="2">
  <diagram name="1 oldal" id="XXqZg0C2dv_rh5Nmw_e9">
    <mxGraphModel dx="1474" dy="840" grid="1" gridSize="10" guides="1" tooltips="1" connect="1" arrows="1" fold="1" page="1" pageScale="1" pageWidth="10000" pageHeight="2000" math="0" shadow="0">
      <root>
        <mxCell id="0" />
        <mxCell id="1" parent="0" />
        <mxCell id="ICyJf8ScMRBZU93ftOw4-1" value="Ügyvéd" style="ellipse;shape=doubleEllipse;margin=3;whiteSpace=wrap;html=1;align=center;" vertex="1" parent="1">
          <mxGeometry x="440" y="740" width="120" height="50" as="geometry" />
        </mxCell>
        <mxCell id="YJGP_tQOx4Pj-f75QA2G-1" value="Ügyvédi_ID" style="shape=rhombus;perimeter=rhombusPerimeter;whiteSpace=wrap;html=1;align=center;fontStyle=4" vertex="1" parent="1">
          <mxGeometry x="200" y="860" width="120" height="60" as="geometry" />
        </mxCell>
        <mxCell id="PUg8mWYpeewetaqHyxth-1" value="Szakterület" style="ellipse;whiteSpace=wrap;html=1;align=center;" vertex="1" parent="1">
          <mxGeometry x="340" y="870" width="100" height="40" as="geometry" />
        </mxCell>
        <mxCell id="jzlbg64kv0yl-C3WHJPy-1" value="Telefonszám" style="ellipse;shape=doubleEllipse;margin=3;whiteSpace=wrap;html=1;align=center;" vertex="1" parent="1">
          <mxGeometry x="450" y="870" width="100" height="40" as="geometry" />
        </mxCell>
        <mxCell id="2ozMBCedKeuKXz6ciGc6-1" value="Ügyvéd_Név" style="ellipse;whiteSpace=wrap;html=1;align=center;" vertex="1" parent="1">
          <mxGeometry x="560" y="870" width="100" height="40" as="geometry" />
        </mxCell>
        <mxCell id="lhOaMGFWjHdq1UTUpK3w-1" value="Vádlott" style="ellipse;shape=doubleEllipse;margin=3;whiteSpace=wrap;html=1;align=center;" vertex="1" parent="1">
          <mxGeometry x="1180" y="740" width="120" height="50" as="geometry" />
        </mxCell>
        <mxCell id="lhOaMGFWjHdq1UTUpK3w-2" value="Személyi_ig" style="shape=rhombus;perimeter=rhombusPerimeter;whiteSpace=wrap;html=1;align=center;fontStyle=4" vertex="1" parent="1">
          <mxGeometry x="910" y="860" width="120" height="60" as="geometry" />
        </mxCell>
        <mxCell id="lhOaMGFWjHdq1UTUpK3w-3" value="Lakcím" style="ellipse;whiteSpace=wrap;html=1;align=center;" vertex="1" parent="1">
          <mxGeometry x="1060" y="870" width="100" height="40" as="geometry" />
        </mxCell>
        <mxCell id="lhOaMGFWjHdq1UTUpK3w-5" value="Szülidő" style="ellipse;whiteSpace=wrap;html=1;align=center;" vertex="1" parent="1">
          <mxGeometry x="1190" y="870" width="100" height="40" as="geometry" />
        </mxCell>
        <mxCell id="4j7thvOcyM_hKqkJIs6l-1" value="Kor" style="ellipse;whiteSpace=wrap;html=1;align=center;dashed=1;" vertex="1" parent="1">
          <mxGeometry x="1320" y="870" width="100" height="40" as="geometry" />
        </mxCell>
        <mxCell id="4j7thvOcyM_hKqkJIs6l-2" value="Priusz" style="ellipse;whiteSpace=wrap;html=1;align=center;" vertex="1" parent="1">
          <mxGeometry x="1450" y="870" width="100" height="40" as="geometry" />
        </mxCell>
        <mxCell id="t7_Jyj0Na3LPfnBzv7Cd-1" value="Név" style="ellipse;whiteSpace=wrap;html=1;align=center;" vertex="1" parent="1">
          <mxGeometry x="1610" y="870" width="100" height="40" as="geometry" />
        </mxCell>
        <mxCell id="t7_Jyj0Na3LPfnBzv7Cd-2" value="Vnév" style="ellipse;whiteSpace=wrap;html=1;align=center;" vertex="1" parent="1">
          <mxGeometry x="1550" y="942.5" width="100" height="40" as="geometry" />
        </mxCell>
        <mxCell id="t7_Jyj0Na3LPfnBzv7Cd-3" value="Knév" style="ellipse;whiteSpace=wrap;html=1;align=center;" vertex="1" parent="1">
          <mxGeometry x="1670" y="942.5" width="100" height="40" as="geometry" />
        </mxCell>
        <mxCell id="AifDiOjABzppqGR04Om8-1" value="Ügy" style="ellipse;shape=doubleEllipse;margin=3;whiteSpace=wrap;html=1;align=center;" vertex="1" parent="1">
          <mxGeometry x="2580" y="740" width="120" height="50" as="geometry" />
        </mxCell>
        <mxCell id="AifDiOjABzppqGR04Om8-2" value="Ügyszám_ID" style="shape=rhombus;perimeter=rhombusPerimeter;whiteSpace=wrap;html=1;align=center;fontStyle=4" vertex="1" parent="1">
          <mxGeometry x="2310" y="860" width="120" height="60" as="geometry" />
        </mxCell>
        <mxCell id="AifDiOjABzppqGR04Om8-3" value="Típus" style="ellipse;whiteSpace=wrap;html=1;align=center;" vertex="1" parent="1">
          <mxGeometry x="2460" y="870" width="100" height="40" as="geometry" />
        </mxCell>
        <mxCell id="AifDiOjABzppqGR04Om8-5" value="Állapot" style="ellipse;whiteSpace=wrap;html=1;align=center;" vertex="1" parent="1">
          <mxGeometry x="2720" y="870" width="100" height="40" as="geometry" />
        </mxCell>
        <mxCell id="AifDiOjABzppqGR04Om8-6" value="Dátum" style="ellipse;whiteSpace=wrap;html=1;align=center;" vertex="1" parent="1">
          <mxGeometry x="2590" y="870" width="100" height="40" as="geometry" />
        </mxCell>
        <mxCell id="9tY4wnXhgzZ47btH6-lA-2" value="Bűnös-e" style="ellipse;shape=doubleEllipse;margin=3;whiteSpace=wrap;html=1;align=center;" vertex="1" parent="1">
          <mxGeometry x="1890" y="740" width="120" height="50" as="geometry" />
        </mxCell>
        <mxCell id="h_xi1_EhXuhTgCRIHGQ7-1" value="Vád" style="ellipse;whiteSpace=wrap;html=1;align=center;" vertex="1" parent="1">
          <mxGeometry x="1900" y="870" width="100" height="40" as="geometry" />
        </mxCell>
        <mxCell id="h_xi1_EhXuhTgCRIHGQ7-2" value="Ítéletet hoz" style="ellipse;shape=doubleEllipse;margin=3;whiteSpace=wrap;html=1;align=center;" vertex="1" parent="1">
          <mxGeometry x="3057.5" y="740" width="120" height="50" as="geometry" />
        </mxCell>
        <mxCell id="h_xi1_EhXuhTgCRIHGQ7-6" value="Ítélet" style="ellipse;whiteSpace=wrap;html=1;align=center;" vertex="1" parent="1">
          <mxGeometry x="3067.5" y="870" width="100" height="40" as="geometry" />
        </mxCell>
        <mxCell id="h_xi1_EhXuhTgCRIHGQ7-7" value="Ügyek száma" style="ellipse;whiteSpace=wrap;html=1;align=center;dashed=1;" vertex="1" parent="1">
          <mxGeometry x="2925" y="870" width="100" height="40" as="geometry" />
        </mxCell>
        <mxCell id="h_xi1_EhXuhTgCRIHGQ7-8" value="Bíró" style="ellipse;shape=doubleEllipse;margin=3;whiteSpace=wrap;html=1;align=center;" vertex="1" parent="1">
          <mxGeometry x="3770" y="740" width="120" height="50" as="geometry" />
        </mxCell>
        <mxCell id="h_xi1_EhXuhTgCRIHGQ7-9" value="Bíró_ID" style="shape=rhombus;perimeter=rhombusPerimeter;whiteSpace=wrap;html=1;align=center;fontStyle=4" vertex="1" parent="1">
          <mxGeometry x="3500" y="860" width="120" height="60" as="geometry" />
        </mxCell>
        <mxCell id="h_xi1_EhXuhTgCRIHGQ7-10" value="Bíró_Név" style="ellipse;whiteSpace=wrap;html=1;align=center;" vertex="1" parent="1">
          <mxGeometry x="3650" y="870" width="100" height="40" as="geometry" />
        </mxCell>
        <mxCell id="h_xi1_EhXuhTgCRIHGQ7-11" value="Tanítványok" style="ellipse;whiteSpace=wrap;html=1;align=center;" vertex="1" parent="1">
          <mxGeometry x="3910" y="870" width="100" height="40" as="geometry" />
        </mxCell>
        <mxCell id="h_xi1_EhXuhTgCRIHGQ7-12" value="Tapasztalat" style="ellipse;whiteSpace=wrap;html=1;align=center;" vertex="1" parent="1">
          <mxGeometry x="3780" y="870" width="100" height="40" as="geometry" />
        </mxCell>
        <mxCell id="h_xi1_EhXuhTgCRIHGQ7-14" value="Jegyző" style="ellipse;shape=doubleEllipse;margin=3;whiteSpace=wrap;html=1;align=center;" vertex="1" parent="1">
          <mxGeometry x="4410" y="740" width="120" height="50" as="geometry" />
        </mxCell>
        <mxCell id="h_xi1_EhXuhTgCRIHGQ7-15" value="Jegyző_ID" style="shape=rhombus;perimeter=rhombusPerimeter;whiteSpace=wrap;html=1;align=center;fontStyle=4" vertex="1" parent="1">
          <mxGeometry x="4140" y="860" width="120" height="60" as="geometry" />
        </mxCell>
        <mxCell id="h_xi1_EhXuhTgCRIHGQ7-16" value="Jegyző_Név" style="ellipse;whiteSpace=wrap;html=1;align=center;" vertex="1" parent="1">
          <mxGeometry x="4290" y="870" width="100" height="40" as="geometry" />
        </mxCell>
        <mxCell id="h_xi1_EhXuhTgCRIHGQ7-17" value="Nyelvtudás" style="ellipse;whiteSpace=wrap;html=1;align=center;" vertex="1" parent="1">
          <mxGeometry x="4550" y="870" width="100" height="40" as="geometry" />
        </mxCell>
        <mxCell id="h_xi1_EhXuhTgCRIHGQ7-18" value="Munkaidő" style="ellipse;whiteSpace=wrap;html=1;align=center;" vertex="1" parent="1">
          <mxGeometry x="4420" y="870" width="100" height="40" as="geometry" />
        </mxCell>
        <mxCell id="pAQFY7UB-0J_gEu6tKrF-2" style="edgeStyle=orthogonalEdgeStyle;rounded=0;orthogonalLoop=1;jettySize=auto;html=1;exitX=0.5;exitY=1;exitDx=0;exitDy=0;entryX=0.5;entryY=1;entryDx=0;entryDy=0;dashed=1;" edge="1" parent="1" source="IDKoMS5DcFYXpzcmD1uS-1" target="lhOaMGFWjHdq1UTUpK3w-2">
          <mxGeometry relative="1" as="geometry">
            <Array as="points">
              <mxPoint x="720" y="950" />
              <mxPoint x="970" y="950" />
            </Array>
          </mxGeometry>
        </mxCell>
        <mxCell id="IDKoMS5DcFYXpzcmD1uS-1" value="Védi" style="shape=rhombus;perimeter=rhombusPerimeter;whiteSpace=wrap;html=1;align=center;fontStyle=0" vertex="1" parent="1">
          <mxGeometry x="680" y="860" width="80" height="60" as="geometry" />
        </mxCell>
        <mxCell id="xGnovQ70czHpJ9U4uVZW-5" value="" style="line;strokeWidth=1;rotatable=0;dashed=1;labelPosition=right;align=left;verticalAlign=middle;spacingTop=0;spacingLeft=6;points=[];portConstraint=eastwest;" vertex="1" parent="1">
          <mxGeometry x="707" y="894" width="29" height="10" as="geometry" />
        </mxCell>
        <mxCell id="_O6WmMdUIBeNxGoUNS9c-3" value="" style="endArrow=none;html=1;rounded=0;exitX=0.5;exitY=0;exitDx=0;exitDy=0;entryX=0.5;entryY=1;entryDx=0;entryDy=0;" edge="1" parent="1" source="YJGP_tQOx4Pj-f75QA2G-1" target="ICyJf8ScMRBZU93ftOw4-1">
          <mxGeometry relative="1" as="geometry">
            <mxPoint x="410" y="890" as="sourcePoint" />
            <mxPoint x="570" y="890" as="targetPoint" />
          </mxGeometry>
        </mxCell>
        <mxCell id="_O6WmMdUIBeNxGoUNS9c-4" value="" style="endArrow=none;html=1;rounded=0;exitX=0.5;exitY=0;exitDx=0;exitDy=0;entryX=0.5;entryY=1;entryDx=0;entryDy=0;" edge="1" parent="1" source="PUg8mWYpeewetaqHyxth-1" target="ICyJf8ScMRBZU93ftOw4-1">
          <mxGeometry relative="1" as="geometry">
            <mxPoint x="240" y="870" as="sourcePoint" />
            <mxPoint x="510" y="800" as="targetPoint" />
          </mxGeometry>
        </mxCell>
        <mxCell id="i9tSx1mTOkSYXbCnPOZw-1" value="" style="endArrow=none;html=1;rounded=0;exitX=0.5;exitY=0;exitDx=0;exitDy=0;entryX=0.5;entryY=1;entryDx=0;entryDy=0;" edge="1" parent="1" source="jzlbg64kv0yl-C3WHJPy-1" target="ICyJf8ScMRBZU93ftOw4-1">
          <mxGeometry relative="1" as="geometry">
            <mxPoint x="250" y="880" as="sourcePoint" />
            <mxPoint x="520" y="810" as="targetPoint" />
          </mxGeometry>
        </mxCell>
        <mxCell id="i9tSx1mTOkSYXbCnPOZw-2" value="" style="endArrow=none;html=1;rounded=0;exitX=0.5;exitY=0;exitDx=0;exitDy=0;entryX=0.5;entryY=1;entryDx=0;entryDy=0;" edge="1" parent="1" source="2ozMBCedKeuKXz6ciGc6-1" target="ICyJf8ScMRBZU93ftOw4-1">
          <mxGeometry relative="1" as="geometry">
            <mxPoint x="260" y="890" as="sourcePoint" />
            <mxPoint x="530" y="820" as="targetPoint" />
          </mxGeometry>
        </mxCell>
        <mxCell id="i9tSx1mTOkSYXbCnPOZw-3" value="" style="endArrow=none;html=1;rounded=0;exitX=0.5;exitY=0;exitDx=0;exitDy=0;entryX=0.5;entryY=1;entryDx=0;entryDy=0;" edge="1" parent="1" source="IDKoMS5DcFYXpzcmD1uS-1" target="ICyJf8ScMRBZU93ftOw4-1">
          <mxGeometry relative="1" as="geometry">
            <mxPoint x="270" y="900" as="sourcePoint" />
            <mxPoint x="540" y="830" as="targetPoint" />
          </mxGeometry>
        </mxCell>
        <mxCell id="DaG7itmabDul9z_JEO5d-1" value="" style="rounded=0;whiteSpace=wrap;html=1;rotation=90;" vertex="1" parent="1">
          <mxGeometry x="362.5" y="942.5" width="55" height="40" as="geometry" />
        </mxCell>
        <mxCell id="qnJ0SuZLahgLcd840VJe-1" value="" style="rounded=0;whiteSpace=wrap;html=1;rotation=90;" vertex="1" parent="1">
          <mxGeometry x="472.5" y="942.5" width="55" height="40" as="geometry" />
        </mxCell>
        <mxCell id="qnJ0SuZLahgLcd840VJe-2" value="" style="rounded=0;whiteSpace=wrap;html=1;rotation=90;" vertex="1" parent="1">
          <mxGeometry x="582.5" y="942.5" width="55" height="40" as="geometry" />
        </mxCell>
        <mxCell id="4fdf6INlTelt8O9HWZry-1" value="" style="endArrow=none;html=1;rounded=0;exitX=0;exitY=0.5;exitDx=0;exitDy=0;entryX=0.5;entryY=1;entryDx=0;entryDy=0;" edge="1" parent="1" source="DaG7itmabDul9z_JEO5d-1" target="PUg8mWYpeewetaqHyxth-1">
          <mxGeometry relative="1" as="geometry">
            <mxPoint x="400" y="880" as="sourcePoint" />
            <mxPoint x="510" y="800" as="targetPoint" />
          </mxGeometry>
        </mxCell>
        <mxCell id="4fdf6INlTelt8O9HWZry-2" value="" style="endArrow=none;html=1;rounded=0;exitX=0;exitY=0.5;exitDx=0;exitDy=0;entryX=0.5;entryY=1;entryDx=0;entryDy=0;" edge="1" parent="1" source="qnJ0SuZLahgLcd840VJe-1" target="jzlbg64kv0yl-C3WHJPy-1">
          <mxGeometry relative="1" as="geometry">
            <mxPoint x="410" y="890" as="sourcePoint" />
            <mxPoint x="520" y="810" as="targetPoint" />
          </mxGeometry>
        </mxCell>
        <mxCell id="4fdf6INlTelt8O9HWZry-3" value="" style="endArrow=none;html=1;rounded=0;exitX=0;exitY=0.5;exitDx=0;exitDy=0;entryX=0.5;entryY=1;entryDx=0;entryDy=0;" edge="1" parent="1" source="qnJ0SuZLahgLcd840VJe-2" target="2ozMBCedKeuKXz6ciGc6-1">
          <mxGeometry relative="1" as="geometry">
            <mxPoint x="420" y="900" as="sourcePoint" />
            <mxPoint x="530" y="820" as="targetPoint" />
          </mxGeometry>
        </mxCell>
        <mxCell id="4fdf6INlTelt8O9HWZry-4" value="" style="endArrow=none;html=1;rounded=0;exitX=0.5;exitY=1;exitDx=0;exitDy=0;entryX=0.5;entryY=0;entryDx=0;entryDy=0;" edge="1" parent="1" source="lhOaMGFWjHdq1UTUpK3w-1" target="lhOaMGFWjHdq1UTUpK3w-3">
          <mxGeometry relative="1" as="geometry">
            <mxPoint x="1090" y="800" as="sourcePoint" />
            <mxPoint x="850" y="730" as="targetPoint" />
          </mxGeometry>
        </mxCell>
        <mxCell id="4fdf6INlTelt8O9HWZry-5" value="" style="endArrow=none;html=1;rounded=0;exitX=0.5;exitY=1;exitDx=0;exitDy=0;entryX=0.5;entryY=0;entryDx=0;entryDy=0;" edge="1" parent="1" source="lhOaMGFWjHdq1UTUpK3w-1" target="lhOaMGFWjHdq1UTUpK3w-2">
          <mxGeometry relative="1" as="geometry">
            <mxPoint x="1100" y="810" as="sourcePoint" />
            <mxPoint x="860" y="740" as="targetPoint" />
          </mxGeometry>
        </mxCell>
        <mxCell id="4fdf6INlTelt8O9HWZry-6" value="" style="endArrow=none;html=1;rounded=0;exitX=0.5;exitY=1;exitDx=0;exitDy=0;entryX=0.5;entryY=0;entryDx=0;entryDy=0;" edge="1" parent="1" source="lhOaMGFWjHdq1UTUpK3w-1" target="lhOaMGFWjHdq1UTUpK3w-5">
          <mxGeometry relative="1" as="geometry">
            <mxPoint x="1110" y="820" as="sourcePoint" />
            <mxPoint x="870" y="750" as="targetPoint" />
          </mxGeometry>
        </mxCell>
        <mxCell id="4fdf6INlTelt8O9HWZry-7" value="" style="endArrow=none;html=1;rounded=0;exitX=0.5;exitY=1;exitDx=0;exitDy=0;entryX=0.5;entryY=0;entryDx=0;entryDy=0;" edge="1" parent="1" source="lhOaMGFWjHdq1UTUpK3w-1" target="4j7thvOcyM_hKqkJIs6l-1">
          <mxGeometry relative="1" as="geometry">
            <mxPoint x="1120" y="830" as="sourcePoint" />
            <mxPoint x="880" y="760" as="targetPoint" />
          </mxGeometry>
        </mxCell>
        <mxCell id="4fdf6INlTelt8O9HWZry-8" value="" style="endArrow=none;html=1;rounded=0;exitX=0.5;exitY=1;exitDx=0;exitDy=0;entryX=0.5;entryY=0;entryDx=0;entryDy=0;" edge="1" parent="1" source="lhOaMGFWjHdq1UTUpK3w-1" target="4j7thvOcyM_hKqkJIs6l-2">
          <mxGeometry relative="1" as="geometry">
            <mxPoint x="1130" y="840" as="sourcePoint" />
            <mxPoint x="890" y="770" as="targetPoint" />
          </mxGeometry>
        </mxCell>
        <mxCell id="4fdf6INlTelt8O9HWZry-9" value="" style="endArrow=none;html=1;rounded=0;exitX=0.5;exitY=1;exitDx=0;exitDy=0;entryX=0.5;entryY=0;entryDx=0;entryDy=0;" edge="1" parent="1" source="lhOaMGFWjHdq1UTUpK3w-1" target="t7_Jyj0Na3LPfnBzv7Cd-1">
          <mxGeometry relative="1" as="geometry">
            <mxPoint x="1140" y="850" as="sourcePoint" />
            <mxPoint x="900" y="780" as="targetPoint" />
          </mxGeometry>
        </mxCell>
        <mxCell id="4fdf6INlTelt8O9HWZry-10" value="" style="endArrow=none;html=1;rounded=0;exitX=0.5;exitY=1;exitDx=0;exitDy=0;entryX=0.5;entryY=0;entryDx=0;entryDy=0;" edge="1" parent="1" source="t7_Jyj0Na3LPfnBzv7Cd-1" target="t7_Jyj0Na3LPfnBzv7Cd-2">
          <mxGeometry relative="1" as="geometry">
            <mxPoint x="1180" y="860" as="sourcePoint" />
            <mxPoint x="940" y="790" as="targetPoint" />
          </mxGeometry>
        </mxCell>
        <mxCell id="4fdf6INlTelt8O9HWZry-11" value="" style="endArrow=none;html=1;rounded=0;exitX=0.5;exitY=1;exitDx=0;exitDy=0;entryX=0.5;entryY=0;entryDx=0;entryDy=0;" edge="1" parent="1" source="t7_Jyj0Na3LPfnBzv7Cd-1" target="t7_Jyj0Na3LPfnBzv7Cd-3">
          <mxGeometry relative="1" as="geometry">
            <mxPoint x="1190" y="870" as="sourcePoint" />
            <mxPoint x="950" y="800" as="targetPoint" />
          </mxGeometry>
        </mxCell>
        <mxCell id="LPIXueX1Jsd80bNfayYm-1" value="" style="rounded=0;whiteSpace=wrap;html=1;rotation=90;" vertex="1" parent="1">
          <mxGeometry x="1082.5" y="942.5" width="55" height="40" as="geometry" />
        </mxCell>
        <mxCell id="LPIXueX1Jsd80bNfayYm-2" value="" style="rounded=0;whiteSpace=wrap;html=1;rotation=90;" vertex="1" parent="1">
          <mxGeometry x="1212.5" y="942.5" width="55" height="40" as="geometry" />
        </mxCell>
        <mxCell id="LPIXueX1Jsd80bNfayYm-3" value="" style="rounded=0;whiteSpace=wrap;html=1;rotation=90;" vertex="1" parent="1">
          <mxGeometry x="1342.5" y="942.5" width="55" height="40" as="geometry" />
        </mxCell>
        <mxCell id="LPIXueX1Jsd80bNfayYm-4" value="" style="endArrow=none;html=1;rounded=0;exitX=0.5;exitY=1;exitDx=0;exitDy=0;entryX=0;entryY=0.5;entryDx=0;entryDy=0;" edge="1" parent="1" source="lhOaMGFWjHdq1UTUpK3w-3" target="LPIXueX1Jsd80bNfayYm-1">
          <mxGeometry relative="1" as="geometry">
            <mxPoint x="1250" y="800" as="sourcePoint" />
            <mxPoint x="1120" y="880" as="targetPoint" />
          </mxGeometry>
        </mxCell>
        <mxCell id="LPIXueX1Jsd80bNfayYm-5" value="" style="endArrow=none;html=1;rounded=0;exitX=0.5;exitY=1;exitDx=0;exitDy=0;entryX=0;entryY=0.5;entryDx=0;entryDy=0;" edge="1" parent="1" source="lhOaMGFWjHdq1UTUpK3w-5" target="LPIXueX1Jsd80bNfayYm-2">
          <mxGeometry relative="1" as="geometry">
            <mxPoint x="1260" y="810" as="sourcePoint" />
            <mxPoint x="1130" y="890" as="targetPoint" />
          </mxGeometry>
        </mxCell>
        <mxCell id="LPIXueX1Jsd80bNfayYm-6" value="" style="endArrow=none;html=1;rounded=0;exitX=0.5;exitY=1;exitDx=0;exitDy=0;entryX=0;entryY=0.5;entryDx=0;entryDy=0;" edge="1" parent="1" source="4j7thvOcyM_hKqkJIs6l-1" target="LPIXueX1Jsd80bNfayYm-3">
          <mxGeometry relative="1" as="geometry">
            <mxPoint x="1270" y="820" as="sourcePoint" />
            <mxPoint x="1140" y="900" as="targetPoint" />
          </mxGeometry>
        </mxCell>
        <mxCell id="LPIXueX1Jsd80bNfayYm-7" value="" style="rounded=0;whiteSpace=wrap;html=1;rotation=90;" vertex="1" parent="1">
          <mxGeometry x="1472.5" y="942.5" width="55" height="40" as="geometry" />
        </mxCell>
        <mxCell id="LPIXueX1Jsd80bNfayYm-8" value="" style="endArrow=none;html=1;rounded=0;exitX=0.5;exitY=1;exitDx=0;exitDy=0;entryX=0;entryY=0.5;entryDx=0;entryDy=0;" edge="1" parent="1" source="4j7thvOcyM_hKqkJIs6l-2" target="LPIXueX1Jsd80bNfayYm-7">
          <mxGeometry relative="1" as="geometry">
            <mxPoint x="1380" y="920" as="sourcePoint" />
            <mxPoint x="1380" y="945" as="targetPoint" />
          </mxGeometry>
        </mxCell>
        <mxCell id="AodtNTyvZ4n8N1bWTOUp-1" style="edgeStyle=orthogonalEdgeStyle;rounded=0;orthogonalLoop=1;jettySize=auto;html=1;exitX=0.5;exitY=1;exitDx=0;exitDy=0;entryX=0.5;entryY=1;entryDx=0;entryDy=0;dashed=1;" edge="1" parent="1" source="wsiOggRL3oX4yjMz1rA--1" target="AifDiOjABzppqGR04Om8-2">
          <mxGeometry relative="1" as="geometry">
            <Array as="points">
              <mxPoint x="2160" y="950" />
              <mxPoint x="2370" y="950" />
            </Array>
          </mxGeometry>
        </mxCell>
        <mxCell id="wsiOggRL3oX4yjMz1rA--1" value="Ügy" style="shape=rhombus;perimeter=rhombusPerimeter;whiteSpace=wrap;html=1;align=center;fontStyle=0" vertex="1" parent="1">
          <mxGeometry x="2120" y="860" width="80" height="60" as="geometry" />
        </mxCell>
        <mxCell id="wsiOggRL3oX4yjMz1rA--2" value="" style="line;strokeWidth=1;rotatable=0;dashed=1;labelPosition=right;align=left;verticalAlign=middle;spacingTop=0;spacingLeft=6;points=[];portConstraint=eastwest;" vertex="1" parent="1">
          <mxGeometry x="2145.5" y="891" width="29" height="10" as="geometry" />
        </mxCell>
        <mxCell id="MPx8VXwnGoAc70haydLC-1" style="edgeStyle=orthogonalEdgeStyle;rounded=0;orthogonalLoop=1;jettySize=auto;html=1;exitX=0.5;exitY=1;exitDx=0;exitDy=0;entryX=1;entryY=1;entryDx=0;entryDy=0;dashed=1;" edge="1" parent="1" source="wsiOggRL3oX4yjMz1rA--3" target="lhOaMGFWjHdq1UTUpK3w-2">
          <mxGeometry relative="1" as="geometry">
            <Array as="points">
              <mxPoint x="2060" y="1020" />
              <mxPoint x="1000" y="1020" />
            </Array>
          </mxGeometry>
        </mxCell>
        <mxCell id="wsiOggRL3oX4yjMz1rA--3" value="Vádlott" style="shape=rhombus;perimeter=rhombusPerimeter;whiteSpace=wrap;html=1;align=center;fontStyle=0" vertex="1" parent="1">
          <mxGeometry x="2020" y="860" width="80" height="60" as="geometry" />
        </mxCell>
        <mxCell id="wsiOggRL3oX4yjMz1rA--4" value="" style="line;strokeWidth=1;rotatable=0;dashed=1;labelPosition=right;align=left;verticalAlign=middle;spacingTop=0;spacingLeft=6;points=[];portConstraint=eastwest;" vertex="1" parent="1">
          <mxGeometry x="2045.5" y="891" width="29" height="10" as="geometry" />
        </mxCell>
        <mxCell id="CYr4HLM2nOeCX3ADsWrw-1" value="" style="endArrow=none;html=1;rounded=0;exitX=0.5;exitY=1;exitDx=0;exitDy=0;entryX=0.5;entryY=0;entryDx=0;entryDy=0;" edge="1" parent="1" source="9tY4wnXhgzZ47btH6-lA-2" target="h_xi1_EhXuhTgCRIHGQ7-1">
          <mxGeometry relative="1" as="geometry">
            <mxPoint x="1710" y="860" as="sourcePoint" />
            <mxPoint x="1770" y="910" as="targetPoint" />
          </mxGeometry>
        </mxCell>
        <mxCell id="CYr4HLM2nOeCX3ADsWrw-2" value="" style="endArrow=none;html=1;rounded=0;exitX=0.5;exitY=1;exitDx=0;exitDy=0;entryX=0.5;entryY=0;entryDx=0;entryDy=0;" edge="1" parent="1" source="9tY4wnXhgzZ47btH6-lA-2" target="wsiOggRL3oX4yjMz1rA--3">
          <mxGeometry relative="1" as="geometry">
            <mxPoint x="1780" y="880" as="sourcePoint" />
            <mxPoint x="1840" y="930" as="targetPoint" />
          </mxGeometry>
        </mxCell>
        <mxCell id="CYr4HLM2nOeCX3ADsWrw-3" value="" style="endArrow=none;html=1;rounded=0;exitX=0.5;exitY=1;exitDx=0;exitDy=0;entryX=0.5;entryY=0;entryDx=0;entryDy=0;" edge="1" parent="1" source="9tY4wnXhgzZ47btH6-lA-2" target="wsiOggRL3oX4yjMz1rA--1">
          <mxGeometry relative="1" as="geometry">
            <mxPoint x="1550" y="911" as="sourcePoint" />
            <mxPoint x="1610" y="961" as="targetPoint" />
          </mxGeometry>
        </mxCell>
        <mxCell id="MPx8VXwnGoAc70haydLC-2" value="" style="rounded=0;whiteSpace=wrap;html=1;rotation=90;" vertex="1" parent="1">
          <mxGeometry x="1922.5" y="942.5" width="55" height="40" as="geometry" />
        </mxCell>
        <mxCell id="MPx8VXwnGoAc70haydLC-3" value="" style="endArrow=none;html=1;rounded=0;exitX=0.5;exitY=1;exitDx=0;exitDy=0;entryX=0;entryY=0.5;entryDx=0;entryDy=0;" edge="1" parent="1" source="h_xi1_EhXuhTgCRIHGQ7-1" target="MPx8VXwnGoAc70haydLC-2">
          <mxGeometry relative="1" as="geometry">
            <mxPoint x="1960" y="800" as="sourcePoint" />
            <mxPoint x="1960" y="880" as="targetPoint" />
          </mxGeometry>
        </mxCell>
        <mxCell id="tVK_GQV288JRwI57IRof-1" value="Tárgyalás_ZUYISF" style="ellipse;whiteSpace=wrap;html=1;align=center;" vertex="1" parent="1">
          <mxGeometry x="2575" y="215" width="130" height="50" as="geometry" />
        </mxCell>
        <mxCell id="Cd5uZ2cuPrq8kh20msnP-1" value="" style="rounded=0;whiteSpace=wrap;html=1;rotation=90;" vertex="1" parent="1">
          <mxGeometry x="2482.5" y="942.5" width="55" height="40" as="geometry" />
        </mxCell>
        <mxCell id="Cd5uZ2cuPrq8kh20msnP-2" value="" style="rounded=0;whiteSpace=wrap;html=1;rotation=90;" vertex="1" parent="1">
          <mxGeometry x="2612.5" y="942.5" width="55" height="40" as="geometry" />
        </mxCell>
        <mxCell id="Cd5uZ2cuPrq8kh20msnP-3" value="" style="rounded=0;whiteSpace=wrap;html=1;rotation=90;" vertex="1" parent="1">
          <mxGeometry x="2742.5" y="942.5" width="55" height="40" as="geometry" />
        </mxCell>
        <mxCell id="Cd5uZ2cuPrq8kh20msnP-4" value="" style="endArrow=none;html=1;rounded=0;exitX=0.5;exitY=0;exitDx=0;exitDy=0;entryX=0.5;entryY=1;entryDx=0;entryDy=0;" edge="1" parent="1" source="AifDiOjABzppqGR04Om8-3" target="AifDiOjABzppqGR04Om8-1">
          <mxGeometry relative="1" as="geometry">
            <mxPoint x="2210" y="700" as="sourcePoint" />
            <mxPoint x="2420" y="770" as="targetPoint" />
          </mxGeometry>
        </mxCell>
        <mxCell id="Cd5uZ2cuPrq8kh20msnP-5" value="" style="endArrow=none;html=1;rounded=0;exitX=0.5;exitY=0;exitDx=0;exitDy=0;entryX=0.5;entryY=1;entryDx=0;entryDy=0;" edge="1" parent="1" source="AifDiOjABzppqGR04Om8-2" target="AifDiOjABzppqGR04Om8-1">
          <mxGeometry relative="1" as="geometry">
            <mxPoint x="2220" y="710" as="sourcePoint" />
            <mxPoint x="2430" y="780" as="targetPoint" />
          </mxGeometry>
        </mxCell>
        <mxCell id="Cd5uZ2cuPrq8kh20msnP-6" value="" style="endArrow=none;html=1;rounded=0;exitX=0.5;exitY=0;exitDx=0;exitDy=0;entryX=0.5;entryY=1;entryDx=0;entryDy=0;" edge="1" parent="1" source="AifDiOjABzppqGR04Om8-6" target="AifDiOjABzppqGR04Om8-1">
          <mxGeometry relative="1" as="geometry">
            <mxPoint x="2230" y="720" as="sourcePoint" />
            <mxPoint x="2440" y="790" as="targetPoint" />
          </mxGeometry>
        </mxCell>
        <mxCell id="Cd5uZ2cuPrq8kh20msnP-7" value="" style="endArrow=none;html=1;rounded=0;exitX=0.5;exitY=0;exitDx=0;exitDy=0;entryX=0.5;entryY=1;entryDx=0;entryDy=0;" edge="1" parent="1" source="AifDiOjABzppqGR04Om8-5" target="AifDiOjABzppqGR04Om8-1">
          <mxGeometry relative="1" as="geometry">
            <mxPoint x="2240" y="730" as="sourcePoint" />
            <mxPoint x="2450" y="800" as="targetPoint" />
          </mxGeometry>
        </mxCell>
        <mxCell id="Cd5uZ2cuPrq8kh20msnP-8" value="" style="endArrow=none;html=1;rounded=0;exitX=0;exitY=0.5;exitDx=0;exitDy=0;entryX=0.5;entryY=1;entryDx=0;entryDy=0;" edge="1" parent="1" source="Cd5uZ2cuPrq8kh20msnP-1" target="AifDiOjABzppqGR04Om8-3">
          <mxGeometry relative="1" as="geometry">
            <mxPoint x="2250" y="740" as="sourcePoint" />
            <mxPoint x="2460" y="810" as="targetPoint" />
          </mxGeometry>
        </mxCell>
        <mxCell id="Cd5uZ2cuPrq8kh20msnP-9" value="" style="endArrow=none;html=1;rounded=0;exitX=0;exitY=0.5;exitDx=0;exitDy=0;entryX=0.5;entryY=1;entryDx=0;entryDy=0;" edge="1" parent="1" source="Cd5uZ2cuPrq8kh20msnP-2" target="AifDiOjABzppqGR04Om8-6">
          <mxGeometry relative="1" as="geometry">
            <mxPoint x="2260" y="750" as="sourcePoint" />
            <mxPoint x="2470" y="820" as="targetPoint" />
          </mxGeometry>
        </mxCell>
        <mxCell id="Cd5uZ2cuPrq8kh20msnP-10" value="" style="endArrow=none;html=1;rounded=0;exitX=0;exitY=0.5;exitDx=0;exitDy=0;entryX=0.5;entryY=1;entryDx=0;entryDy=0;" edge="1" parent="1" source="Cd5uZ2cuPrq8kh20msnP-3" target="AifDiOjABzppqGR04Om8-5">
          <mxGeometry relative="1" as="geometry">
            <mxPoint x="2270" y="760" as="sourcePoint" />
            <mxPoint x="2480" y="830" as="targetPoint" />
          </mxGeometry>
        </mxCell>
        <mxCell id="Cd5uZ2cuPrq8kh20msnP-15" style="edgeStyle=orthogonalEdgeStyle;rounded=0;orthogonalLoop=1;jettySize=auto;html=1;exitX=0.5;exitY=1;exitDx=0;exitDy=0;entryX=1;entryY=1;entryDx=0;entryDy=0;dashed=1;" edge="1" parent="1" source="Cd5uZ2cuPrq8kh20msnP-11" target="AifDiOjABzppqGR04Om8-2">
          <mxGeometry relative="1" as="geometry">
            <Array as="points">
              <mxPoint x="3227" y="1020" />
              <mxPoint x="2400" y="1020" />
            </Array>
          </mxGeometry>
        </mxCell>
        <mxCell id="Cd5uZ2cuPrq8kh20msnP-11" value="Ügy" style="shape=rhombus;perimeter=rhombusPerimeter;whiteSpace=wrap;html=1;align=center;fontStyle=0" vertex="1" parent="1">
          <mxGeometry x="3187.5" y="860" width="80" height="60" as="geometry" />
        </mxCell>
        <mxCell id="Cd5uZ2cuPrq8kh20msnP-12" value="" style="line;strokeWidth=1;rotatable=0;dashed=1;labelPosition=right;align=left;verticalAlign=middle;spacingTop=0;spacingLeft=6;points=[];portConstraint=eastwest;" vertex="1" parent="1">
          <mxGeometry x="3213" y="891" width="29" height="10" as="geometry" />
        </mxCell>
        <mxCell id="Cd5uZ2cuPrq8kh20msnP-16" style="edgeStyle=orthogonalEdgeStyle;rounded=0;orthogonalLoop=1;jettySize=auto;html=1;exitX=0.5;exitY=1;exitDx=0;exitDy=0;entryX=0.5;entryY=1;entryDx=0;entryDy=0;dashed=1;" edge="1" parent="1" source="Cd5uZ2cuPrq8kh20msnP-13" target="h_xi1_EhXuhTgCRIHGQ7-9">
          <mxGeometry relative="1" as="geometry">
            <Array as="points">
              <mxPoint x="3327" y="960" />
              <mxPoint x="3560" y="960" />
            </Array>
          </mxGeometry>
        </mxCell>
        <mxCell id="Cd5uZ2cuPrq8kh20msnP-13" value="Bíró" style="shape=rhombus;perimeter=rhombusPerimeter;whiteSpace=wrap;html=1;align=center;fontStyle=0" vertex="1" parent="1">
          <mxGeometry x="3287.5" y="860" width="80" height="60" as="geometry" />
        </mxCell>
        <mxCell id="Cd5uZ2cuPrq8kh20msnP-14" value="" style="line;strokeWidth=1;rotatable=0;dashed=1;labelPosition=right;align=left;verticalAlign=middle;spacingTop=0;spacingLeft=6;points=[];portConstraint=eastwest;" vertex="1" parent="1">
          <mxGeometry x="3313" y="891" width="29" height="10" as="geometry" />
        </mxCell>
        <mxCell id="Cd5uZ2cuPrq8kh20msnP-17" value="" style="rounded=0;whiteSpace=wrap;html=1;rotation=90;" vertex="1" parent="1">
          <mxGeometry x="2947.5" y="942.5" width="55" height="40" as="geometry" />
        </mxCell>
        <mxCell id="Cd5uZ2cuPrq8kh20msnP-18" value="" style="rounded=0;whiteSpace=wrap;html=1;rotation=90;" vertex="1" parent="1">
          <mxGeometry x="3090" y="942.5" width="55" height="40" as="geometry" />
        </mxCell>
        <mxCell id="Cd5uZ2cuPrq8kh20msnP-19" value="" style="endArrow=none;html=1;rounded=0;exitX=0.5;exitY=0;exitDx=0;exitDy=0;entryX=0.5;entryY=1;entryDx=0;entryDy=0;" edge="1" parent="1" source="h_xi1_EhXuhTgCRIHGQ7-6" target="h_xi1_EhXuhTgCRIHGQ7-2">
          <mxGeometry relative="1" as="geometry">
            <mxPoint x="2980" y="790" as="sourcePoint" />
            <mxPoint x="2850" y="710" as="targetPoint" />
          </mxGeometry>
        </mxCell>
        <mxCell id="Cd5uZ2cuPrq8kh20msnP-20" value="" style="endArrow=none;html=1;rounded=0;exitX=0;exitY=0.5;exitDx=0;exitDy=0;entryX=0.5;entryY=1;entryDx=0;entryDy=0;" edge="1" parent="1" source="Cd5uZ2cuPrq8kh20msnP-17" target="h_xi1_EhXuhTgCRIHGQ7-7">
          <mxGeometry relative="1" as="geometry">
            <mxPoint x="2957.5" y="800" as="sourcePoint" />
            <mxPoint x="2975" y="910" as="targetPoint" />
          </mxGeometry>
        </mxCell>
        <mxCell id="Cd5uZ2cuPrq8kh20msnP-21" value="" style="endArrow=none;html=1;rounded=0;exitX=0;exitY=0.5;exitDx=0;exitDy=0;entryX=0.5;entryY=1;entryDx=0;entryDy=0;" edge="1" parent="1" source="Cd5uZ2cuPrq8kh20msnP-18" target="h_xi1_EhXuhTgCRIHGQ7-6">
          <mxGeometry relative="1" as="geometry">
            <mxPoint x="3000" y="810" as="sourcePoint" />
            <mxPoint x="2870" y="730" as="targetPoint" />
          </mxGeometry>
        </mxCell>
        <mxCell id="Cd5uZ2cuPrq8kh20msnP-22" value="" style="endArrow=none;html=1;rounded=0;exitX=0.5;exitY=0;exitDx=0;exitDy=0;entryX=0.5;entryY=1;entryDx=0;entryDy=0;" edge="1" parent="1" target="h_xi1_EhXuhTgCRIHGQ7-2">
          <mxGeometry relative="1" as="geometry">
            <mxPoint x="3007.5" y="870" as="sourcePoint" />
            <mxPoint x="2880" y="740" as="targetPoint" />
          </mxGeometry>
        </mxCell>
        <mxCell id="Cd5uZ2cuPrq8kh20msnP-23" value="" style="endArrow=none;html=1;rounded=0;exitX=0.5;exitY=0;exitDx=0;exitDy=0;entryX=0.5;entryY=1;entryDx=0;entryDy=0;" edge="1" parent="1" source="Cd5uZ2cuPrq8kh20msnP-11" target="h_xi1_EhXuhTgCRIHGQ7-2">
          <mxGeometry relative="1" as="geometry">
            <mxPoint x="3020" y="830" as="sourcePoint" />
            <mxPoint x="2890" y="750" as="targetPoint" />
          </mxGeometry>
        </mxCell>
        <mxCell id="Cd5uZ2cuPrq8kh20msnP-24" value="" style="endArrow=none;html=1;rounded=0;exitX=0.5;exitY=0;exitDx=0;exitDy=0;entryX=0.5;entryY=1;entryDx=0;entryDy=0;" edge="1" parent="1" source="Cd5uZ2cuPrq8kh20msnP-13" target="h_xi1_EhXuhTgCRIHGQ7-2">
          <mxGeometry relative="1" as="geometry">
            <mxPoint x="3030" y="840" as="sourcePoint" />
            <mxPoint x="2900" y="760" as="targetPoint" />
          </mxGeometry>
        </mxCell>
        <mxCell id="n6Exd7dYd-y8qDGJRE7M-1" value="" style="rounded=0;whiteSpace=wrap;html=1;rotation=90;" vertex="1" parent="1">
          <mxGeometry x="3672.5" y="942.5" width="55" height="40" as="geometry" />
        </mxCell>
        <mxCell id="n6Exd7dYd-y8qDGJRE7M-2" value="" style="rounded=0;whiteSpace=wrap;html=1;rotation=90;" vertex="1" parent="1">
          <mxGeometry x="3802.5" y="942.5" width="55" height="40" as="geometry" />
        </mxCell>
        <mxCell id="n6Exd7dYd-y8qDGJRE7M-3" value="" style="rounded=0;whiteSpace=wrap;html=1;rotation=90;" vertex="1" parent="1">
          <mxGeometry x="3932.5" y="942.5" width="55" height="40" as="geometry" />
        </mxCell>
        <mxCell id="n6Exd7dYd-y8qDGJRE7M-4" value="" style="endArrow=none;html=1;rounded=0;exitX=0.5;exitY=0;exitDx=0;exitDy=0;entryX=0.5;entryY=1;entryDx=0;entryDy=0;" edge="1" parent="1" source="h_xi1_EhXuhTgCRIHGQ7-9" target="h_xi1_EhXuhTgCRIHGQ7-8">
          <mxGeometry relative="1" as="geometry">
            <mxPoint x="3560" y="760" as="sourcePoint" />
            <mxPoint x="3350" y="690" as="targetPoint" />
          </mxGeometry>
        </mxCell>
        <mxCell id="n6Exd7dYd-y8qDGJRE7M-5" value="" style="endArrow=none;html=1;rounded=0;exitX=0.5;exitY=0;exitDx=0;exitDy=0;entryX=0.5;entryY=1;entryDx=0;entryDy=0;" edge="1" parent="1" source="h_xi1_EhXuhTgCRIHGQ7-10" target="h_xi1_EhXuhTgCRIHGQ7-8">
          <mxGeometry relative="1" as="geometry">
            <mxPoint x="3570" y="770" as="sourcePoint" />
            <mxPoint x="3360" y="700" as="targetPoint" />
          </mxGeometry>
        </mxCell>
        <mxCell id="n6Exd7dYd-y8qDGJRE7M-6" value="" style="endArrow=none;html=1;rounded=0;exitX=0.5;exitY=0;exitDx=0;exitDy=0;entryX=0.5;entryY=1;entryDx=0;entryDy=0;" edge="1" parent="1" source="h_xi1_EhXuhTgCRIHGQ7-12" target="h_xi1_EhXuhTgCRIHGQ7-8">
          <mxGeometry relative="1" as="geometry">
            <mxPoint x="3580" y="780" as="sourcePoint" />
            <mxPoint x="3370" y="710" as="targetPoint" />
          </mxGeometry>
        </mxCell>
        <mxCell id="n6Exd7dYd-y8qDGJRE7M-7" value="" style="endArrow=none;html=1;rounded=0;exitX=0;exitY=0.5;exitDx=0;exitDy=0;entryX=0.5;entryY=1;entryDx=0;entryDy=0;" edge="1" parent="1" source="n6Exd7dYd-y8qDGJRE7M-1" target="h_xi1_EhXuhTgCRIHGQ7-10">
          <mxGeometry relative="1" as="geometry">
            <mxPoint x="3590" y="790" as="sourcePoint" />
            <mxPoint x="3380" y="720" as="targetPoint" />
          </mxGeometry>
        </mxCell>
        <mxCell id="n6Exd7dYd-y8qDGJRE7M-8" value="" style="endArrow=none;html=1;rounded=0;exitX=0;exitY=0.5;exitDx=0;exitDy=0;entryX=0.5;entryY=1;entryDx=0;entryDy=0;" edge="1" parent="1" source="n6Exd7dYd-y8qDGJRE7M-2" target="h_xi1_EhXuhTgCRIHGQ7-12">
          <mxGeometry relative="1" as="geometry">
            <mxPoint x="3600" y="800" as="sourcePoint" />
            <mxPoint x="3390" y="730" as="targetPoint" />
          </mxGeometry>
        </mxCell>
        <mxCell id="n6Exd7dYd-y8qDGJRE7M-9" value="" style="endArrow=none;html=1;rounded=0;exitX=0;exitY=0.5;exitDx=0;exitDy=0;entryX=0.5;entryY=1;entryDx=0;entryDy=0;" edge="1" parent="1" source="n6Exd7dYd-y8qDGJRE7M-3" target="h_xi1_EhXuhTgCRIHGQ7-11">
          <mxGeometry relative="1" as="geometry">
            <mxPoint x="3610" y="810" as="sourcePoint" />
            <mxPoint x="3400" y="740" as="targetPoint" />
          </mxGeometry>
        </mxCell>
        <mxCell id="n6Exd7dYd-y8qDGJRE7M-10" value="" style="endArrow=none;html=1;rounded=0;exitX=0.5;exitY=0;exitDx=0;exitDy=0;entryX=0.5;entryY=1;entryDx=0;entryDy=0;" edge="1" parent="1" source="h_xi1_EhXuhTgCRIHGQ7-11" target="h_xi1_EhXuhTgCRIHGQ7-8">
          <mxGeometry relative="1" as="geometry">
            <mxPoint x="3620" y="820" as="sourcePoint" />
            <mxPoint x="3410" y="750" as="targetPoint" />
          </mxGeometry>
        </mxCell>
        <mxCell id="deojhNhoxFmd2Tt9hxBz-1" style="edgeStyle=orthogonalEdgeStyle;rounded=0;orthogonalLoop=1;jettySize=auto;html=1;exitX=0.5;exitY=1;exitDx=0;exitDy=0;entryX=1;entryY=1;entryDx=0;entryDy=0;dashed=1;" edge="1" parent="1" source="FfzvNCr3R7BM_LNBOgYz-1" target="h_xi1_EhXuhTgCRIHGQ7-9">
          <mxGeometry relative="1" as="geometry">
            <Array as="points">
              <mxPoint x="4720" y="1020" />
              <mxPoint x="3590" y="1020" />
            </Array>
          </mxGeometry>
        </mxCell>
        <mxCell id="FfzvNCr3R7BM_LNBOgYz-1" value="Rögzítés" style="shape=rhombus;perimeter=rhombusPerimeter;whiteSpace=wrap;html=1;align=center;fontStyle=0" vertex="1" parent="1">
          <mxGeometry x="4680" y="865" width="80" height="60" as="geometry" />
        </mxCell>
        <mxCell id="FfzvNCr3R7BM_LNBOgYz-2" value="" style="line;strokeWidth=1;rotatable=0;dashed=1;labelPosition=right;align=left;verticalAlign=middle;spacingTop=0;spacingLeft=6;points=[];portConstraint=eastwest;" vertex="1" parent="1">
          <mxGeometry x="4705.5" y="896" width="29" height="10" as="geometry" />
        </mxCell>
        <mxCell id="deojhNhoxFmd2Tt9hxBz-2" value="" style="rounded=0;whiteSpace=wrap;html=1;rotation=90;" vertex="1" parent="1">
          <mxGeometry x="4312.5" y="942.5" width="55" height="40" as="geometry" />
        </mxCell>
        <mxCell id="deojhNhoxFmd2Tt9hxBz-3" value="" style="rounded=0;whiteSpace=wrap;html=1;rotation=90;" vertex="1" parent="1">
          <mxGeometry x="4442.5" y="942.5" width="55" height="40" as="geometry" />
        </mxCell>
        <mxCell id="deojhNhoxFmd2Tt9hxBz-4" value="" style="rounded=0;whiteSpace=wrap;html=1;rotation=90;" vertex="1" parent="1">
          <mxGeometry x="4572.5" y="942.5" width="55" height="40" as="geometry" />
        </mxCell>
        <mxCell id="deojhNhoxFmd2Tt9hxBz-5" value="" style="endArrow=none;html=1;rounded=0;exitX=0.5;exitY=0;exitDx=0;exitDy=0;" edge="1" parent="1" source="FfzvNCr3R7BM_LNBOgYz-1">
          <mxGeometry relative="1" as="geometry">
            <mxPoint x="4190" y="805" as="sourcePoint" />
            <mxPoint x="4470" y="790" as="targetPoint" />
          </mxGeometry>
        </mxCell>
        <mxCell id="deojhNhoxFmd2Tt9hxBz-6" value="" style="endArrow=none;html=1;rounded=0;exitX=0;exitY=0.5;exitDx=0;exitDy=0;entryX=0.5;entryY=1;entryDx=0;entryDy=0;" edge="1" parent="1" source="deojhNhoxFmd2Tt9hxBz-3" target="h_xi1_EhXuhTgCRIHGQ7-18">
          <mxGeometry relative="1" as="geometry">
            <mxPoint x="4200" y="815" as="sourcePoint" />
            <mxPoint x="4070" y="735" as="targetPoint" />
          </mxGeometry>
        </mxCell>
        <mxCell id="deojhNhoxFmd2Tt9hxBz-7" value="" style="endArrow=none;html=1;rounded=0;entryX=0.5;entryY=1;entryDx=0;entryDy=0;exitX=0.5;exitY=0;exitDx=0;exitDy=0;" edge="1" parent="1" source="h_xi1_EhXuhTgCRIHGQ7-15" target="h_xi1_EhXuhTgCRIHGQ7-14">
          <mxGeometry relative="1" as="geometry">
            <mxPoint x="4210" y="825" as="sourcePoint" />
            <mxPoint x="4080" y="745" as="targetPoint" />
          </mxGeometry>
        </mxCell>
        <mxCell id="deojhNhoxFmd2Tt9hxBz-8" value="" style="endArrow=none;html=1;rounded=0;exitX=0;exitY=0.5;exitDx=0;exitDy=0;entryX=0.5;entryY=1;entryDx=0;entryDy=0;" edge="1" parent="1" source="deojhNhoxFmd2Tt9hxBz-2" target="h_xi1_EhXuhTgCRIHGQ7-16">
          <mxGeometry relative="1" as="geometry">
            <mxPoint x="4220" y="835" as="sourcePoint" />
            <mxPoint x="4090" y="755" as="targetPoint" />
          </mxGeometry>
        </mxCell>
        <mxCell id="deojhNhoxFmd2Tt9hxBz-9" value="" style="endArrow=none;html=1;rounded=0;exitX=0.5;exitY=0;exitDx=0;exitDy=0;entryX=0.5;entryY=1;entryDx=0;entryDy=0;" edge="1" parent="1" source="h_xi1_EhXuhTgCRIHGQ7-16" target="h_xi1_EhXuhTgCRIHGQ7-14">
          <mxGeometry relative="1" as="geometry">
            <mxPoint x="4230" y="845" as="sourcePoint" />
            <mxPoint x="4100" y="765" as="targetPoint" />
          </mxGeometry>
        </mxCell>
        <mxCell id="deojhNhoxFmd2Tt9hxBz-10" value="" style="endArrow=none;html=1;rounded=0;exitX=0.5;exitY=0;exitDx=0;exitDy=0;entryX=0.5;entryY=1;entryDx=0;entryDy=0;" edge="1" parent="1" source="h_xi1_EhXuhTgCRIHGQ7-18" target="h_xi1_EhXuhTgCRIHGQ7-14">
          <mxGeometry relative="1" as="geometry">
            <mxPoint x="4240" y="855" as="sourcePoint" />
            <mxPoint x="4110" y="775" as="targetPoint" />
          </mxGeometry>
        </mxCell>
        <mxCell id="deojhNhoxFmd2Tt9hxBz-11" value="" style="endArrow=none;html=1;rounded=0;exitX=0;exitY=0.5;exitDx=0;exitDy=0;entryX=0.5;entryY=1;entryDx=0;entryDy=0;" edge="1" parent="1" source="deojhNhoxFmd2Tt9hxBz-4" target="h_xi1_EhXuhTgCRIHGQ7-17">
          <mxGeometry relative="1" as="geometry">
            <mxPoint x="4250" y="865" as="sourcePoint" />
            <mxPoint x="4120" y="785" as="targetPoint" />
          </mxGeometry>
        </mxCell>
        <mxCell id="deojhNhoxFmd2Tt9hxBz-12" value="" style="endArrow=none;html=1;rounded=0;exitX=0.5;exitY=0;exitDx=0;exitDy=0;entryX=0.5;entryY=1;entryDx=0;entryDy=0;" edge="1" parent="1" source="h_xi1_EhXuhTgCRIHGQ7-17" target="h_xi1_EhXuhTgCRIHGQ7-14">
          <mxGeometry relative="1" as="geometry">
            <mxPoint x="4260" y="875" as="sourcePoint" />
            <mxPoint x="4130" y="795" as="targetPoint" />
          </mxGeometry>
        </mxCell>
        <mxCell id="SSwKWZ2K0PEpS0p2O7uw-1" value="" style="endArrow=none;html=1;rounded=0;exitX=0.5;exitY=0;exitDx=0;exitDy=0;entryX=0.5;entryY=1;entryDx=0;entryDy=0;" edge="1" parent="1" source="9tY4wnXhgzZ47btH6-lA-2" target="tVK_GQV288JRwI57IRof-1">
          <mxGeometry relative="1" as="geometry">
            <mxPoint x="2200" y="340" as="sourcePoint" />
            <mxPoint x="2470" y="270" as="targetPoint" />
          </mxGeometry>
        </mxCell>
        <mxCell id="SSwKWZ2K0PEpS0p2O7uw-2" value="" style="endArrow=none;html=1;rounded=0;exitX=0.5;exitY=0;exitDx=0;exitDy=0;entryX=0;entryY=0.5;entryDx=0;entryDy=0;" edge="1" parent="1" source="ICyJf8ScMRBZU93ftOw4-1" target="tVK_GQV288JRwI57IRof-1">
          <mxGeometry relative="1" as="geometry">
            <mxPoint x="2010" y="250" as="sourcePoint" />
            <mxPoint x="2280" y="180" as="targetPoint" />
          </mxGeometry>
        </mxCell>
        <mxCell id="SSwKWZ2K0PEpS0p2O7uw-3" value="" style="endArrow=none;html=1;rounded=0;exitX=0.5;exitY=0;exitDx=0;exitDy=0;entryX=0.5;entryY=1;entryDx=0;entryDy=0;" edge="1" parent="1" source="h_xi1_EhXuhTgCRIHGQ7-2" target="tVK_GQV288JRwI57IRof-1">
          <mxGeometry relative="1" as="geometry">
            <mxPoint x="2020" y="260" as="sourcePoint" />
            <mxPoint x="2290" y="190" as="targetPoint" />
          </mxGeometry>
        </mxCell>
        <mxCell id="SSwKWZ2K0PEpS0p2O7uw-4" value="" style="endArrow=none;html=1;rounded=0;exitX=0.5;exitY=0;exitDx=0;exitDy=0;entryX=0.5;entryY=1;entryDx=0;entryDy=0;" edge="1" parent="1" source="AifDiOjABzppqGR04Om8-1" target="tVK_GQV288JRwI57IRof-1">
          <mxGeometry relative="1" as="geometry">
            <mxPoint x="2030" y="270" as="sourcePoint" />
            <mxPoint x="2300" y="200" as="targetPoint" />
          </mxGeometry>
        </mxCell>
        <mxCell id="SSwKWZ2K0PEpS0p2O7uw-5" value="" style="endArrow=none;html=1;rounded=0;exitX=0.5;exitY=0;exitDx=0;exitDy=0;entryX=0;entryY=1;entryDx=0;entryDy=0;" edge="1" parent="1" source="lhOaMGFWjHdq1UTUpK3w-1" target="tVK_GQV288JRwI57IRof-1">
          <mxGeometry relative="1" as="geometry">
            <mxPoint x="2040" y="280" as="sourcePoint" />
            <mxPoint x="2310" y="210" as="targetPoint" />
          </mxGeometry>
        </mxCell>
        <mxCell id="C5Vgl7C7pSIm746fPHeQ-1" value="" style="endArrow=none;html=1;rounded=0;exitX=0.5;exitY=0;exitDx=0;exitDy=0;entryX=1;entryY=1;entryDx=0;entryDy=0;" edge="1" parent="1" source="h_xi1_EhXuhTgCRIHGQ7-8" target="tVK_GQV288JRwI57IRof-1">
          <mxGeometry relative="1" as="geometry">
            <mxPoint x="2050" y="290" as="sourcePoint" />
            <mxPoint x="2320" y="220" as="targetPoint" />
          </mxGeometry>
        </mxCell>
        <mxCell id="C5Vgl7C7pSIm746fPHeQ-2" value="" style="endArrow=none;html=1;rounded=0;entryX=1;entryY=0.5;entryDx=0;entryDy=0;exitX=0.5;exitY=0;exitDx=0;exitDy=0;" edge="1" parent="1" source="h_xi1_EhXuhTgCRIHGQ7-14" target="tVK_GQV288JRwI57IRof-1">
          <mxGeometry relative="1" as="geometry">
            <mxPoint x="3460" y="310" as="sourcePoint" />
            <mxPoint x="2330" y="230" as="targetPoint" />
          </mxGeometry>
        </mxCell>
      </root>
    </mxGraphModel>
  </diagram>
  <diagram id="ZR4KJ2Qv4tITGljbpkp-" name="2 oldal">
    <mxGraphModel dx="1433" dy="798" grid="1" gridSize="10" guides="1" tooltips="1" connect="1" arrows="1" fold="1" page="1" pageScale="1" pageWidth="3300" pageHeight="4681" math="0" shadow="0">
      <root>
        <mxCell id="0" />
        <mxCell id="1" parent="0" />
        <mxCell id="IK-T9pgVXqQDZMBXlOiV-1" value="FEL_ID" style="shape=rhombus;perimeter=rhombusPerimeter;whiteSpace=wrap;html=1;align=center;fontStyle=4" vertex="1" parent="1">
          <mxGeometry x="1140" y="832.5" width="120" height="60" as="geometry" />
        </mxCell>
        <mxCell id="IK-T9pgVXqQDZMBXlOiV-2" value="FESZ_ID" style="shape=rhombus;perimeter=rhombusPerimeter;whiteSpace=wrap;html=1;align=center;fontStyle=4" vertex="1" parent="1">
          <mxGeometry x="220" y="825" width="120" height="60" as="geometry" />
        </mxCell>
        <mxCell id="IK-T9pgVXqQDZMBXlOiV-3" value="B_ID" style="shape=rhombus;perimeter=rhombusPerimeter;whiteSpace=wrap;html=1;align=center;fontStyle=4" vertex="1" parent="1">
          <mxGeometry x="2035" y="827.5" width="120" height="60" as="geometry" />
        </mxCell>
        <mxCell id="IK-T9pgVXqQDZMBXlOiV-4" value="A_ID" style="shape=rhombus;perimeter=rhombusPerimeter;whiteSpace=wrap;html=1;align=center;fontStyle=4" vertex="1" parent="1">
          <mxGeometry x="1590" y="832.5" width="120" height="60" as="geometry" />
        </mxCell>
        <mxCell id="IK-T9pgVXqQDZMBXlOiV-5" value="R_ID" style="shape=rhombus;perimeter=rhombusPerimeter;whiteSpace=wrap;html=1;align=center;fontStyle=4" vertex="1" parent="1">
          <mxGeometry x="3160" y="827.5" width="120" height="60" as="geometry" />
        </mxCell>
        <mxCell id="IK-T9pgVXqQDZMBXlOiV-6" value="NY_ID" style="shape=rhombus;perimeter=rhombusPerimeter;whiteSpace=wrap;html=1;align=center;fontStyle=4" vertex="1" parent="1">
          <mxGeometry x="2860" y="825" width="120" height="60" as="geometry" />
        </mxCell>
        <mxCell id="IK-T9pgVXqQDZMBXlOiV-7" value="T_ID" style="shape=rhombus;perimeter=rhombusPerimeter;whiteSpace=wrap;html=1;align=center;fontStyle=4" vertex="1" parent="1">
          <mxGeometry x="610" y="830" width="120" height="60" as="geometry" />
        </mxCell>
        <mxCell id="IK-T9pgVXqQDZMBXlOiV-8" value="név" style="ellipse;whiteSpace=wrap;html=1;align=center;" vertex="1" parent="1">
          <mxGeometry x="1290" y="847.5" width="60" height="30" as="geometry" />
        </mxCell>
        <mxCell id="IK-T9pgVXqQDZMBXlOiV-9" value="ország" style="ellipse;whiteSpace=wrap;html=1;align=center;" vertex="1" parent="1">
          <mxGeometry x="1355" y="847.5" width="60" height="30" as="geometry" />
        </mxCell>
        <mxCell id="IK-T9pgVXqQDZMBXlOiV-10" value="díj" style="ellipse;whiteSpace=wrap;html=1;align=center;" vertex="1" parent="1">
          <mxGeometry x="1425" y="847.5" width="60" height="30" as="geometry" />
        </mxCell>
        <mxCell id="IK-T9pgVXqQDZMBXlOiV-11" value="" style="endArrow=none;html=1;rounded=0;exitX=0.5;exitY=1;exitDx=0;exitDy=0;entryX=0.5;entryY=0;entryDx=0;entryDy=0;" edge="1" parent="1" target="IK-T9pgVXqQDZMBXlOiV-1">
          <mxGeometry relative="1" as="geometry">
            <mxPoint x="1385" y="797.5" as="sourcePoint" />
            <mxPoint x="1805" y="837.5" as="targetPoint" />
          </mxGeometry>
        </mxCell>
        <mxCell id="IK-T9pgVXqQDZMBXlOiV-12" value="" style="endArrow=none;html=1;rounded=0;exitX=0.5;exitY=1;exitDx=0;exitDy=0;entryX=0.5;entryY=0;entryDx=0;entryDy=0;" edge="1" parent="1" target="IK-T9pgVXqQDZMBXlOiV-8">
          <mxGeometry relative="1" as="geometry">
            <mxPoint x="1385" y="797.5" as="sourcePoint" />
            <mxPoint x="1805" y="837.5" as="targetPoint" />
          </mxGeometry>
        </mxCell>
        <mxCell id="IK-T9pgVXqQDZMBXlOiV-13" value="" style="endArrow=none;html=1;rounded=0;exitX=0.5;exitY=1;exitDx=0;exitDy=0;entryX=0.5;entryY=0;entryDx=0;entryDy=0;" edge="1" parent="1" target="IK-T9pgVXqQDZMBXlOiV-9">
          <mxGeometry relative="1" as="geometry">
            <mxPoint x="1385" y="797.5" as="sourcePoint" />
            <mxPoint x="1805" y="837.5" as="targetPoint" />
          </mxGeometry>
        </mxCell>
        <mxCell id="IK-T9pgVXqQDZMBXlOiV-14" value="" style="endArrow=none;html=1;rounded=0;exitX=0.5;exitY=1;exitDx=0;exitDy=0;entryX=0.5;entryY=0;entryDx=0;entryDy=0;" edge="1" parent="1" target="IK-T9pgVXqQDZMBXlOiV-10">
          <mxGeometry relative="1" as="geometry">
            <mxPoint x="1385" y="797.5" as="sourcePoint" />
            <mxPoint x="1805" y="837.5" as="targetPoint" />
          </mxGeometry>
        </mxCell>
        <mxCell id="IK-T9pgVXqQDZMBXlOiV-15" value="név" style="ellipse;whiteSpace=wrap;html=1;align=center;" vertex="1" parent="1">
          <mxGeometry x="360" y="840" width="60" height="30" as="geometry" />
        </mxCell>
        <mxCell id="IK-T9pgVXqQDZMBXlOiV-16" value="helyszín" style="ellipse;whiteSpace=wrap;html=1;align=center;" vertex="1" parent="1">
          <mxGeometry x="440" y="840" width="60" height="30" as="geometry" />
        </mxCell>
        <mxCell id="IK-T9pgVXqQDZMBXlOiV-17" value="év" style="ellipse;whiteSpace=wrap;html=1;align=center;" vertex="1" parent="1">
          <mxGeometry x="510" y="840" width="60" height="30" as="geometry" />
        </mxCell>
        <mxCell id="IK-T9pgVXqQDZMBXlOiV-18" value="" style="endArrow=none;html=1;rounded=0;exitX=0.5;exitY=1;exitDx=0;exitDy=0;entryX=0.5;entryY=0;entryDx=0;entryDy=0;" edge="1" parent="1" target="IK-T9pgVXqQDZMBXlOiV-15">
          <mxGeometry relative="1" as="geometry">
            <mxPoint x="465.0000000000009" y="790" as="sourcePoint" />
            <mxPoint x="705" y="650" as="targetPoint" />
          </mxGeometry>
        </mxCell>
        <mxCell id="IK-T9pgVXqQDZMBXlOiV-19" value="" style="endArrow=none;html=1;rounded=0;exitX=0.5;exitY=1;exitDx=0;exitDy=0;entryX=0.5;entryY=0;entryDx=0;entryDy=0;" edge="1" parent="1" target="IK-T9pgVXqQDZMBXlOiV-16">
          <mxGeometry relative="1" as="geometry">
            <mxPoint x="465.0000000000009" y="790" as="sourcePoint" />
            <mxPoint x="705" y="650" as="targetPoint" />
          </mxGeometry>
        </mxCell>
        <mxCell id="IK-T9pgVXqQDZMBXlOiV-20" value="" style="endArrow=none;html=1;rounded=0;exitX=0.5;exitY=1;exitDx=0;exitDy=0;entryX=0.5;entryY=0;entryDx=0;entryDy=0;" edge="1" parent="1" target="IK-T9pgVXqQDZMBXlOiV-17">
          <mxGeometry relative="1" as="geometry">
            <mxPoint x="465.0000000000009" y="790" as="sourcePoint" />
            <mxPoint x="705" y="650" as="targetPoint" />
          </mxGeometry>
        </mxCell>
        <mxCell id="IK-T9pgVXqQDZMBXlOiV-21" value="" style="endArrow=none;html=1;rounded=0;exitX=0.5;exitY=1;exitDx=0;exitDy=0;entryX=0.5;entryY=0;entryDx=0;entryDy=0;" edge="1" parent="1" target="IK-T9pgVXqQDZMBXlOiV-2">
          <mxGeometry relative="1" as="geometry">
            <mxPoint x="465.0000000000009" y="790" as="sourcePoint" />
            <mxPoint x="705" y="650" as="targetPoint" />
          </mxGeometry>
        </mxCell>
        <mxCell id="IK-T9pgVXqQDZMBXlOiV-22" value="név" style="ellipse;whiteSpace=wrap;html=1;align=center;" vertex="1" parent="1">
          <mxGeometry x="2170" y="840" width="60" height="30" as="geometry" />
        </mxCell>
        <mxCell id="IK-T9pgVXqQDZMBXlOiV-23" value="cég" style="ellipse;whiteSpace=wrap;html=1;align=center;" vertex="1" parent="1">
          <mxGeometry x="2240" y="840" width="60" height="30" as="geometry" />
        </mxCell>
        <mxCell id="IK-T9pgVXqQDZMBXlOiV-24" value="ital" style="ellipse;shape=doubleEllipse;margin=3;whiteSpace=wrap;html=1;align=center;" vertex="1" parent="1">
          <mxGeometry x="2310" y="840" width="60" height="30" as="geometry" />
        </mxCell>
        <mxCell id="IK-T9pgVXqQDZMBXlOiV-25" value="" style="endArrow=none;html=1;rounded=0;exitX=0.5;exitY=1;exitDx=0;exitDy=0;entryX=0.5;entryY=0;entryDx=0;entryDy=0;" edge="1" parent="1" target="IK-T9pgVXqQDZMBXlOiV-22">
          <mxGeometry relative="1" as="geometry">
            <mxPoint x="2270" y="780.0000000000002" as="sourcePoint" />
            <mxPoint x="2540" y="440" as="targetPoint" />
          </mxGeometry>
        </mxCell>
        <mxCell id="IK-T9pgVXqQDZMBXlOiV-26" value="" style="endArrow=none;html=1;rounded=0;exitX=0.5;exitY=1;exitDx=0;exitDy=0;entryX=0.5;entryY=0;entryDx=0;entryDy=0;" edge="1" parent="1" target="IK-T9pgVXqQDZMBXlOiV-23">
          <mxGeometry relative="1" as="geometry">
            <mxPoint x="2270" y="780.0000000000002" as="sourcePoint" />
            <mxPoint x="2540" y="440" as="targetPoint" />
          </mxGeometry>
        </mxCell>
        <mxCell id="IK-T9pgVXqQDZMBXlOiV-27" value="" style="endArrow=none;html=1;rounded=0;exitX=0.5;exitY=1;exitDx=0;exitDy=0;entryX=0.5;entryY=0;entryDx=0;entryDy=0;" edge="1" parent="1" target="IK-T9pgVXqQDZMBXlOiV-24">
          <mxGeometry relative="1" as="geometry">
            <mxPoint x="2270" y="780.0000000000002" as="sourcePoint" />
            <mxPoint x="2540" y="440" as="targetPoint" />
          </mxGeometry>
        </mxCell>
        <mxCell id="IK-T9pgVXqQDZMBXlOiV-28" value="" style="endArrow=none;html=1;rounded=0;exitX=0.5;exitY=1;exitDx=0;exitDy=0;entryX=0.5;entryY=0;entryDx=0;entryDy=0;" edge="1" parent="1" target="IK-T9pgVXqQDZMBXlOiV-3">
          <mxGeometry relative="1" as="geometry">
            <mxPoint x="2270" y="780.0000000000002" as="sourcePoint" />
            <mxPoint x="2540" y="440" as="targetPoint" />
          </mxGeometry>
        </mxCell>
        <mxCell id="IK-T9pgVXqQDZMBXlOiV-29" value="név" style="ellipse;whiteSpace=wrap;html=1;align=center;" vertex="1" parent="1">
          <mxGeometry x="1735" y="847.5" width="60" height="30" as="geometry" />
        </mxCell>
        <mxCell id="IK-T9pgVXqQDZMBXlOiV-30" value="fizetés" style="ellipse;whiteSpace=wrap;html=1;align=center;" vertex="1" parent="1">
          <mxGeometry x="1800" y="847.5" width="60" height="30" as="geometry" />
        </mxCell>
        <mxCell id="IK-T9pgVXqQDZMBXlOiV-31" value="műszak" style="ellipse;shape=doubleEllipse;margin=3;whiteSpace=wrap;html=1;align=center;" vertex="1" parent="1">
          <mxGeometry x="1865" y="847.5" width="60" height="30" as="geometry" />
        </mxCell>
        <mxCell id="IK-T9pgVXqQDZMBXlOiV-32" value="" style="endArrow=none;html=1;rounded=0;exitX=0.5;exitY=1;exitDx=0;exitDy=0;entryX=0.5;entryY=0;entryDx=0;entryDy=0;" edge="1" parent="1" target="IK-T9pgVXqQDZMBXlOiV-29">
          <mxGeometry relative="1" as="geometry">
            <mxPoint x="1825.0000000000005" y="797.4999999999998" as="sourcePoint" />
            <mxPoint x="1805" y="997.5" as="targetPoint" />
          </mxGeometry>
        </mxCell>
        <mxCell id="IK-T9pgVXqQDZMBXlOiV-33" value="" style="endArrow=none;html=1;rounded=0;exitX=0.5;exitY=0;exitDx=0;exitDy=0;entryX=0.5;entryY=1;entryDx=0;entryDy=0;" edge="1" parent="1" source="IK-T9pgVXqQDZMBXlOiV-30">
          <mxGeometry relative="1" as="geometry">
            <mxPoint x="1645" y="797.5" as="sourcePoint" />
            <mxPoint x="1825.0000000000005" y="797.4999999999998" as="targetPoint" />
          </mxGeometry>
        </mxCell>
        <mxCell id="IK-T9pgVXqQDZMBXlOiV-34" value="" style="endArrow=none;html=1;rounded=0;entryX=0.5;entryY=1;entryDx=0;entryDy=0;exitX=0.5;exitY=0;exitDx=0;exitDy=0;" edge="1" parent="1" source="IK-T9pgVXqQDZMBXlOiV-31">
          <mxGeometry relative="1" as="geometry">
            <mxPoint x="1645" y="797.5" as="sourcePoint" />
            <mxPoint x="1825.0000000000005" y="797.4999999999998" as="targetPoint" />
          </mxGeometry>
        </mxCell>
        <mxCell id="IK-T9pgVXqQDZMBXlOiV-35" value="" style="endArrow=none;html=1;rounded=0;entryX=0.5;entryY=1;entryDx=0;entryDy=0;exitX=0.5;exitY=0;exitDx=0;exitDy=0;" edge="1" parent="1" source="IK-T9pgVXqQDZMBXlOiV-4">
          <mxGeometry relative="1" as="geometry">
            <mxPoint x="1645" y="797.5" as="sourcePoint" />
            <mxPoint x="1825.0000000000005" y="797.4999999999998" as="targetPoint" />
          </mxGeometry>
        </mxCell>
        <mxCell id="IK-T9pgVXqQDZMBXlOiV-36" value="név" style="ellipse;whiteSpace=wrap;html=1;align=center;" vertex="1" parent="1">
          <mxGeometry x="3305" y="840" width="60" height="30" as="geometry" />
        </mxCell>
        <mxCell id="IK-T9pgVXqQDZMBXlOiV-37" value="lakcím" style="ellipse;whiteSpace=wrap;html=1;align=center;" vertex="1" parent="1">
          <mxGeometry x="3550" y="842.5" width="60" height="30" as="geometry" />
        </mxCell>
        <mxCell id="IK-T9pgVXqQDZMBXlOiV-38" value="Diákigazolvány" style="ellipse;whiteSpace=wrap;html=1;align=center;dashed=1;" vertex="1" parent="1">
          <mxGeometry x="3380" y="840" width="90" height="30" as="geometry" />
        </mxCell>
        <mxCell id="IK-T9pgVXqQDZMBXlOiV-39" value="település" style="ellipse;whiteSpace=wrap;html=1;align=center;" vertex="1" parent="1">
          <mxGeometry x="3480" y="915" width="60" height="30" as="geometry" />
        </mxCell>
        <mxCell id="IK-T9pgVXqQDZMBXlOiV-40" value="utca" style="ellipse;whiteSpace=wrap;html=1;align=center;" vertex="1" parent="1">
          <mxGeometry x="3550" y="915" width="60" height="30" as="geometry" />
        </mxCell>
        <mxCell id="IK-T9pgVXqQDZMBXlOiV-41" value="házszám" style="ellipse;whiteSpace=wrap;html=1;align=center;" vertex="1" parent="1">
          <mxGeometry x="3620" y="915" width="60" height="30" as="geometry" />
        </mxCell>
        <mxCell id="IK-T9pgVXqQDZMBXlOiV-42" value="" style="endArrow=none;html=1;rounded=0;entryX=0.5;entryY=1;entryDx=0;entryDy=0;exitX=0.5;exitY=0;exitDx=0;exitDy=0;" edge="1" parent="1" source="IK-T9pgVXqQDZMBXlOiV-36" target="IK-T9pgVXqQDZMBXlOiV-116">
          <mxGeometry relative="1" as="geometry">
            <mxPoint x="3305" y="947.5" as="sourcePoint" />
            <mxPoint x="3425" y="797.5" as="targetPoint" />
          </mxGeometry>
        </mxCell>
        <mxCell id="IK-T9pgVXqQDZMBXlOiV-43" value="" style="endArrow=none;html=1;rounded=0;entryX=0.5;entryY=0;entryDx=0;entryDy=0;" edge="1" parent="1" source="IK-T9pgVXqQDZMBXlOiV-116" target="IK-T9pgVXqQDZMBXlOiV-38">
          <mxGeometry relative="1" as="geometry">
            <mxPoint x="3425" y="797.5" as="sourcePoint" />
            <mxPoint x="3465" y="947.5" as="targetPoint" />
          </mxGeometry>
        </mxCell>
        <mxCell id="IK-T9pgVXqQDZMBXlOiV-44" value="" style="endArrow=none;html=1;rounded=0;exitX=0.5;exitY=1;exitDx=0;exitDy=0;entryX=0.5;entryY=0;entryDx=0;entryDy=0;" edge="1" parent="1" source="IK-T9pgVXqQDZMBXlOiV-116" target="IK-T9pgVXqQDZMBXlOiV-5">
          <mxGeometry relative="1" as="geometry">
            <mxPoint x="3425" y="797.5" as="sourcePoint" />
            <mxPoint x="3460" y="947.5" as="targetPoint" />
          </mxGeometry>
        </mxCell>
        <mxCell id="IK-T9pgVXqQDZMBXlOiV-45" value="" style="endArrow=none;html=1;rounded=0;exitX=0.5;exitY=1;exitDx=0;exitDy=0;entryX=0.5;entryY=0;entryDx=0;entryDy=0;" edge="1" parent="1" source="IK-T9pgVXqQDZMBXlOiV-116" target="IK-T9pgVXqQDZMBXlOiV-37">
          <mxGeometry relative="1" as="geometry">
            <mxPoint x="3425" y="797.5" as="sourcePoint" />
            <mxPoint x="3460" y="947.5" as="targetPoint" />
          </mxGeometry>
        </mxCell>
        <mxCell id="IK-T9pgVXqQDZMBXlOiV-46" value="" style="endArrow=none;html=1;rounded=0;entryX=0.5;entryY=1;entryDx=0;entryDy=0;exitX=0.5;exitY=0;exitDx=0;exitDy=0;" edge="1" parent="1" source="IK-T9pgVXqQDZMBXlOiV-39" target="IK-T9pgVXqQDZMBXlOiV-37">
          <mxGeometry relative="1" as="geometry">
            <mxPoint x="3300" y="947.5" as="sourcePoint" />
            <mxPoint x="3460" y="947.5" as="targetPoint" />
          </mxGeometry>
        </mxCell>
        <mxCell id="IK-T9pgVXqQDZMBXlOiV-47" value="" style="endArrow=none;html=1;rounded=0;entryX=0.5;entryY=1;entryDx=0;entryDy=0;exitX=0.5;exitY=0;exitDx=0;exitDy=0;" edge="1" parent="1" source="IK-T9pgVXqQDZMBXlOiV-40" target="IK-T9pgVXqQDZMBXlOiV-37">
          <mxGeometry relative="1" as="geometry">
            <mxPoint x="3300" y="947.5" as="sourcePoint" />
            <mxPoint x="3460" y="947.5" as="targetPoint" />
          </mxGeometry>
        </mxCell>
        <mxCell id="IK-T9pgVXqQDZMBXlOiV-48" value="" style="endArrow=none;html=1;rounded=0;entryX=0.5;entryY=1;entryDx=0;entryDy=0;exitX=0.5;exitY=0;exitDx=0;exitDy=0;" edge="1" parent="1" source="IK-T9pgVXqQDZMBXlOiV-41" target="IK-T9pgVXqQDZMBXlOiV-37">
          <mxGeometry relative="1" as="geometry">
            <mxPoint x="3300" y="947.5" as="sourcePoint" />
            <mxPoint x="3460" y="947.5" as="targetPoint" />
          </mxGeometry>
        </mxCell>
        <mxCell id="IK-T9pgVXqQDZMBXlOiV-49" value="nyelv" style="ellipse;whiteSpace=wrap;html=1;align=center;" vertex="1" parent="1">
          <mxGeometry x="3000" y="840" width="60" height="30" as="geometry" />
        </mxCell>
        <mxCell id="IK-T9pgVXqQDZMBXlOiV-50" value="szint" style="ellipse;whiteSpace=wrap;html=1;align=center;" vertex="1" parent="1">
          <mxGeometry x="3070" y="840" width="60" height="30" as="geometry" />
        </mxCell>
        <mxCell id="IK-T9pgVXqQDZMBXlOiV-51" value="" style="endArrow=none;html=1;rounded=0;entryX=0.5;entryY=1;entryDx=0;entryDy=0;exitX=0.5;exitY=0;exitDx=0;exitDy=0;" edge="1" parent="1" source="IK-T9pgVXqQDZMBXlOiV-49">
          <mxGeometry relative="1" as="geometry">
            <mxPoint x="2390" y="825" as="sourcePoint" />
            <mxPoint x="3030" y="780" as="targetPoint" />
          </mxGeometry>
        </mxCell>
        <mxCell id="IK-T9pgVXqQDZMBXlOiV-52" value="" style="endArrow=none;html=1;rounded=0;entryX=0.5;entryY=1;entryDx=0;entryDy=0;exitX=0.5;exitY=0;exitDx=0;exitDy=0;" edge="1" parent="1" source="IK-T9pgVXqQDZMBXlOiV-50">
          <mxGeometry relative="1" as="geometry">
            <mxPoint x="2390" y="825" as="sourcePoint" />
            <mxPoint x="3030" y="780" as="targetPoint" />
          </mxGeometry>
        </mxCell>
        <mxCell id="IK-T9pgVXqQDZMBXlOiV-53" value="" style="endArrow=none;html=1;rounded=0;exitX=0.5;exitY=1;exitDx=0;exitDy=0;entryX=0.5;entryY=0;entryDx=0;entryDy=0;" edge="1" parent="1" target="IK-T9pgVXqQDZMBXlOiV-6">
          <mxGeometry relative="1" as="geometry">
            <mxPoint x="3030" y="780" as="sourcePoint" />
            <mxPoint x="2550" y="825" as="targetPoint" />
          </mxGeometry>
        </mxCell>
        <mxCell id="IK-T9pgVXqQDZMBXlOiV-54" value="név" style="ellipse;whiteSpace=wrap;html=1;align=center;" vertex="1" parent="1">
          <mxGeometry x="745" y="845" width="60" height="30" as="geometry" />
        </mxCell>
        <mxCell id="IK-T9pgVXqQDZMBXlOiV-55" value="adószám" style="ellipse;whiteSpace=wrap;html=1;align=center;" vertex="1" parent="1">
          <mxGeometry x="815" y="845" width="60" height="30" as="geometry" />
        </mxCell>
        <mxCell id="IK-T9pgVXqQDZMBXlOiV-56" value="alapítás" style="ellipse;whiteSpace=wrap;html=1;align=center;" vertex="1" parent="1">
          <mxGeometry x="890" y="845" width="60" height="30" as="geometry" />
        </mxCell>
        <mxCell id="IK-T9pgVXqQDZMBXlOiV-57" value="bevétel" style="ellipse;whiteSpace=wrap;html=1;align=center;" vertex="1" parent="1">
          <mxGeometry x="965" y="845" width="60" height="30" as="geometry" />
        </mxCell>
        <mxCell id="IK-T9pgVXqQDZMBXlOiV-58" value="" style="endArrow=none;html=1;rounded=0;entryX=0.5;entryY=1;entryDx=0;entryDy=0;exitX=0.5;exitY=0;exitDx=0;exitDy=0;" edge="1" parent="1" source="IK-T9pgVXqQDZMBXlOiV-54">
          <mxGeometry relative="1" as="geometry">
            <mxPoint x="730" y="855" as="sourcePoint" />
            <mxPoint x="920.0000000000009" y="795" as="targetPoint" />
          </mxGeometry>
        </mxCell>
        <mxCell id="IK-T9pgVXqQDZMBXlOiV-59" value="" style="endArrow=none;html=1;rounded=0;exitX=0.5;exitY=0;exitDx=0;exitDy=0;" edge="1" parent="1" source="IK-T9pgVXqQDZMBXlOiV-55">
          <mxGeometry relative="1" as="geometry">
            <mxPoint x="730" y="855" as="sourcePoint" />
            <mxPoint x="920" y="795" as="targetPoint" />
          </mxGeometry>
        </mxCell>
        <mxCell id="IK-T9pgVXqQDZMBXlOiV-60" value="" style="endArrow=none;html=1;rounded=0;entryX=0.5;entryY=1;entryDx=0;entryDy=0;exitX=0.5;exitY=0;exitDx=0;exitDy=0;" edge="1" parent="1" source="IK-T9pgVXqQDZMBXlOiV-56">
          <mxGeometry relative="1" as="geometry">
            <mxPoint x="730" y="855" as="sourcePoint" />
            <mxPoint x="920.0000000000009" y="795" as="targetPoint" />
          </mxGeometry>
        </mxCell>
        <mxCell id="IK-T9pgVXqQDZMBXlOiV-61" value="" style="endArrow=none;html=1;rounded=0;entryX=0.5;entryY=1;entryDx=0;entryDy=0;exitX=0.5;exitY=0;exitDx=0;exitDy=0;" edge="1" parent="1" source="IK-T9pgVXqQDZMBXlOiV-57" target="IK-T9pgVXqQDZMBXlOiV-97">
          <mxGeometry relative="1" as="geometry">
            <mxPoint x="730" y="855" as="sourcePoint" />
            <mxPoint x="920.0000000000009" y="795" as="targetPoint" />
          </mxGeometry>
        </mxCell>
        <mxCell id="IK-T9pgVXqQDZMBXlOiV-62" value="" style="endArrow=none;html=1;rounded=0;entryX=0.5;entryY=1;entryDx=0;entryDy=0;exitX=0.5;exitY=0;exitDx=0;exitDy=0;" edge="1" parent="1" source="IK-T9pgVXqQDZMBXlOiV-7">
          <mxGeometry relative="1" as="geometry">
            <mxPoint x="730" y="855" as="sourcePoint" />
            <mxPoint x="920.0000000000009" y="795" as="targetPoint" />
          </mxGeometry>
        </mxCell>
        <mxCell id="IK-T9pgVXqQDZMBXlOiV-63" value="" style="rounded=0;whiteSpace=wrap;html=1;rotation=90;" vertex="1" parent="1">
          <mxGeometry x="1785" y="917.5" width="90" height="40" as="geometry" />
        </mxCell>
        <mxCell id="IK-T9pgVXqQDZMBXlOiV-64" value="" style="rounded=0;whiteSpace=wrap;html=1;rotation=90;" vertex="1" parent="1">
          <mxGeometry x="1720" y="917.5" width="90" height="40" as="geometry" />
        </mxCell>
        <mxCell id="IK-T9pgVXqQDZMBXlOiV-65" value="" style="endArrow=none;html=1;rounded=0;exitX=0;exitY=0.5;exitDx=0;exitDy=0;entryX=0.5;entryY=1;entryDx=0;entryDy=0;" edge="1" parent="1" source="IK-T9pgVXqQDZMBXlOiV-63" target="IK-T9pgVXqQDZMBXlOiV-30">
          <mxGeometry relative="1" as="geometry">
            <mxPoint x="1770" y="957.5" as="sourcePoint" />
            <mxPoint x="1930" y="957.5" as="targetPoint" />
          </mxGeometry>
        </mxCell>
        <mxCell id="IK-T9pgVXqQDZMBXlOiV-66" value="" style="endArrow=none;html=1;rounded=0;exitX=0;exitY=0.5;exitDx=0;exitDy=0;entryX=0.5;entryY=1;entryDx=0;entryDy=0;" edge="1" parent="1" source="IK-T9pgVXqQDZMBXlOiV-64" target="IK-T9pgVXqQDZMBXlOiV-29">
          <mxGeometry relative="1" as="geometry">
            <mxPoint x="1720" y="917.5" as="sourcePoint" />
            <mxPoint x="1880" y="917.5" as="targetPoint" />
          </mxGeometry>
        </mxCell>
        <mxCell id="IK-T9pgVXqQDZMBXlOiV-67" value="" style="rounded=0;whiteSpace=wrap;html=1;rotation=90;" vertex="1" parent="1">
          <mxGeometry x="1410" y="917.5" width="90" height="40" as="geometry" />
        </mxCell>
        <mxCell id="IK-T9pgVXqQDZMBXlOiV-68" value="" style="rounded=0;whiteSpace=wrap;html=1;rotation=90;" vertex="1" parent="1">
          <mxGeometry x="1340" y="917.5" width="90" height="40" as="geometry" />
        </mxCell>
        <mxCell id="IK-T9pgVXqQDZMBXlOiV-69" value="" style="rounded=0;whiteSpace=wrap;html=1;rotation=90;" vertex="1" parent="1">
          <mxGeometry x="1275" y="917.5" width="90" height="40" as="geometry" />
        </mxCell>
        <mxCell id="IK-T9pgVXqQDZMBXlOiV-70" value="" style="endArrow=none;html=1;rounded=0;exitX=0;exitY=0.5;exitDx=0;exitDy=0;entryX=0.5;entryY=1;entryDx=0;entryDy=0;" edge="1" parent="1" source="IK-T9pgVXqQDZMBXlOiV-69" target="IK-T9pgVXqQDZMBXlOiV-8">
          <mxGeometry relative="1" as="geometry">
            <mxPoint x="1615" y="917.5" as="sourcePoint" />
            <mxPoint x="1775" y="917.5" as="targetPoint" />
          </mxGeometry>
        </mxCell>
        <mxCell id="IK-T9pgVXqQDZMBXlOiV-71" value="" style="endArrow=none;html=1;rounded=0;exitX=0;exitY=0.5;exitDx=0;exitDy=0;entryX=0.5;entryY=1;entryDx=0;entryDy=0;" edge="1" parent="1" source="IK-T9pgVXqQDZMBXlOiV-68" target="IK-T9pgVXqQDZMBXlOiV-9">
          <mxGeometry relative="1" as="geometry">
            <mxPoint x="1495" y="917.5" as="sourcePoint" />
            <mxPoint x="1655" y="917.5" as="targetPoint" />
          </mxGeometry>
        </mxCell>
        <mxCell id="IK-T9pgVXqQDZMBXlOiV-72" value="" style="endArrow=none;html=1;rounded=0;exitX=0;exitY=0.5;exitDx=0;exitDy=0;entryX=0.5;entryY=1;entryDx=0;entryDy=0;" edge="1" parent="1" source="IK-T9pgVXqQDZMBXlOiV-67" target="IK-T9pgVXqQDZMBXlOiV-10">
          <mxGeometry relative="1" as="geometry">
            <mxPoint x="1490" y="917.5" as="sourcePoint" />
            <mxPoint x="1650" y="917.5" as="targetPoint" />
          </mxGeometry>
        </mxCell>
        <mxCell id="IK-T9pgVXqQDZMBXlOiV-73" value="" style="rounded=0;whiteSpace=wrap;html=1;rotation=90;" vertex="1" parent="1">
          <mxGeometry x="495" y="920" width="90" height="40" as="geometry" />
        </mxCell>
        <mxCell id="IK-T9pgVXqQDZMBXlOiV-74" value="" style="rounded=0;whiteSpace=wrap;html=1;rotation=90;" vertex="1" parent="1">
          <mxGeometry x="425" y="920" width="90" height="40" as="geometry" />
        </mxCell>
        <mxCell id="IK-T9pgVXqQDZMBXlOiV-75" value="" style="rounded=0;whiteSpace=wrap;html=1;rotation=90;" vertex="1" parent="1">
          <mxGeometry x="345" y="920" width="90" height="40" as="geometry" />
        </mxCell>
        <mxCell id="IK-T9pgVXqQDZMBXlOiV-76" value="" style="endArrow=none;html=1;rounded=0;exitX=0;exitY=0.5;exitDx=0;exitDy=0;entryX=0.5;entryY=1;entryDx=0;entryDy=0;" edge="1" parent="1" source="IK-T9pgVXqQDZMBXlOiV-75" target="IK-T9pgVXqQDZMBXlOiV-15">
          <mxGeometry relative="1" as="geometry">
            <mxPoint x="375" y="820" as="sourcePoint" />
            <mxPoint x="535" y="820" as="targetPoint" />
          </mxGeometry>
        </mxCell>
        <mxCell id="IK-T9pgVXqQDZMBXlOiV-77" value="" style="endArrow=none;html=1;rounded=0;exitX=0;exitY=0.5;exitDx=0;exitDy=0;entryX=0.5;entryY=1;entryDx=0;entryDy=0;" edge="1" parent="1" source="IK-T9pgVXqQDZMBXlOiV-74" target="IK-T9pgVXqQDZMBXlOiV-16">
          <mxGeometry relative="1" as="geometry">
            <mxPoint x="375" y="820" as="sourcePoint" />
            <mxPoint x="535" y="820" as="targetPoint" />
          </mxGeometry>
        </mxCell>
        <mxCell id="IK-T9pgVXqQDZMBXlOiV-78" value="" style="endArrow=none;html=1;rounded=0;exitX=0;exitY=0.5;exitDx=0;exitDy=0;entryX=0.5;entryY=1;entryDx=0;entryDy=0;" edge="1" parent="1" source="IK-T9pgVXqQDZMBXlOiV-73" target="IK-T9pgVXqQDZMBXlOiV-17">
          <mxGeometry relative="1" as="geometry">
            <mxPoint x="375" y="820" as="sourcePoint" />
            <mxPoint x="535" y="820" as="targetPoint" />
          </mxGeometry>
        </mxCell>
        <mxCell id="IK-T9pgVXqQDZMBXlOiV-79" value="" style="rounded=0;whiteSpace=wrap;html=1;rotation=90;" vertex="1" parent="1">
          <mxGeometry x="2985" y="910" width="90" height="40" as="geometry" />
        </mxCell>
        <mxCell id="IK-T9pgVXqQDZMBXlOiV-80" value="" style="rounded=0;whiteSpace=wrap;html=1;rotation=90;" vertex="1" parent="1">
          <mxGeometry x="3055" y="910" width="90" height="40" as="geometry" />
        </mxCell>
        <mxCell id="IK-T9pgVXqQDZMBXlOiV-81" value="" style="endArrow=none;html=1;rounded=0;entryX=0.5;entryY=1;entryDx=0;entryDy=0;exitX=0;exitY=0.5;exitDx=0;exitDy=0;" edge="1" parent="1" source="IK-T9pgVXqQDZMBXlOiV-79" target="IK-T9pgVXqQDZMBXlOiV-49">
          <mxGeometry relative="1" as="geometry">
            <mxPoint x="2700" y="905" as="sourcePoint" />
            <mxPoint x="2860" y="905" as="targetPoint" />
          </mxGeometry>
        </mxCell>
        <mxCell id="IK-T9pgVXqQDZMBXlOiV-82" value="" style="endArrow=none;html=1;rounded=0;entryX=0.5;entryY=1;entryDx=0;entryDy=0;exitX=0;exitY=0.5;exitDx=0;exitDy=0;" edge="1" parent="1" source="IK-T9pgVXqQDZMBXlOiV-80" target="IK-T9pgVXqQDZMBXlOiV-50">
          <mxGeometry relative="1" as="geometry">
            <mxPoint x="2700" y="905" as="sourcePoint" />
            <mxPoint x="2860" y="905" as="targetPoint" />
          </mxGeometry>
        </mxCell>
        <mxCell id="IK-T9pgVXqQDZMBXlOiV-83" value="" style="rounded=0;whiteSpace=wrap;html=1;rotation=90;" vertex="1" parent="1">
          <mxGeometry x="2225" y="910" width="90" height="40" as="geometry" />
        </mxCell>
        <mxCell id="IK-T9pgVXqQDZMBXlOiV-84" value="" style="rounded=0;whiteSpace=wrap;html=1;rotation=90;" vertex="1" parent="1">
          <mxGeometry x="2155" y="910" width="90" height="40" as="geometry" />
        </mxCell>
        <mxCell id="IK-T9pgVXqQDZMBXlOiV-85" value="" style="endArrow=none;html=1;rounded=0;exitX=0;exitY=0.5;exitDx=0;exitDy=0;" edge="1" parent="1" source="IK-T9pgVXqQDZMBXlOiV-84" target="IK-T9pgVXqQDZMBXlOiV-22">
          <mxGeometry relative="1" as="geometry">
            <mxPoint x="2190" y="920" as="sourcePoint" />
            <mxPoint x="2350" y="920" as="targetPoint" />
          </mxGeometry>
        </mxCell>
        <mxCell id="IK-T9pgVXqQDZMBXlOiV-86" value="" style="endArrow=none;html=1;rounded=0;exitX=0;exitY=0.5;exitDx=0;exitDy=0;entryX=0.5;entryY=1;entryDx=0;entryDy=0;" edge="1" parent="1" source="IK-T9pgVXqQDZMBXlOiV-83" target="IK-T9pgVXqQDZMBXlOiV-23">
          <mxGeometry relative="1" as="geometry">
            <mxPoint x="2370" y="970" as="sourcePoint" />
            <mxPoint x="2350" y="920" as="targetPoint" />
          </mxGeometry>
        </mxCell>
        <mxCell id="IK-T9pgVXqQDZMBXlOiV-87" value="" style="rounded=0;whiteSpace=wrap;html=1;rotation=90;" vertex="1" parent="1">
          <mxGeometry x="3290" y="910" width="90" height="40" as="geometry" />
        </mxCell>
        <mxCell id="IK-T9pgVXqQDZMBXlOiV-88" value="" style="rounded=0;whiteSpace=wrap;html=1;rotation=90;" vertex="1" parent="1">
          <mxGeometry x="730" y="915" width="90" height="40" as="geometry" />
        </mxCell>
        <mxCell id="IK-T9pgVXqQDZMBXlOiV-89" value="" style="rounded=0;whiteSpace=wrap;html=1;rotation=90;" vertex="1" parent="1">
          <mxGeometry x="800" y="915" width="90" height="40" as="geometry" />
        </mxCell>
        <mxCell id="IK-T9pgVXqQDZMBXlOiV-90" value="" style="rounded=0;whiteSpace=wrap;html=1;rotation=90;" vertex="1" parent="1">
          <mxGeometry x="875" y="915" width="90" height="40" as="geometry" />
        </mxCell>
        <mxCell id="IK-T9pgVXqQDZMBXlOiV-91" value="" style="rounded=0;whiteSpace=wrap;html=1;rotation=90;" vertex="1" parent="1">
          <mxGeometry x="950" y="915" width="90" height="40" as="geometry" />
        </mxCell>
        <mxCell id="IK-T9pgVXqQDZMBXlOiV-92" value="" style="endArrow=none;html=1;rounded=0;exitX=0;exitY=0.5;exitDx=0;exitDy=0;entryX=0.5;entryY=1;entryDx=0;entryDy=0;" edge="1" parent="1" source="IK-T9pgVXqQDZMBXlOiV-88" target="IK-T9pgVXqQDZMBXlOiV-54">
          <mxGeometry relative="1" as="geometry">
            <mxPoint x="660" y="945" as="sourcePoint" />
            <mxPoint x="820" y="945" as="targetPoint" />
          </mxGeometry>
        </mxCell>
        <mxCell id="IK-T9pgVXqQDZMBXlOiV-93" value="" style="endArrow=none;html=1;rounded=0;exitX=0;exitY=0.5;exitDx=0;exitDy=0;entryX=0.5;entryY=1;entryDx=0;entryDy=0;" edge="1" parent="1" source="IK-T9pgVXqQDZMBXlOiV-89" target="IK-T9pgVXqQDZMBXlOiV-55">
          <mxGeometry relative="1" as="geometry">
            <mxPoint x="660" y="945" as="sourcePoint" />
            <mxPoint x="820" y="945" as="targetPoint" />
          </mxGeometry>
        </mxCell>
        <mxCell id="IK-T9pgVXqQDZMBXlOiV-94" value="" style="endArrow=none;html=1;rounded=0;exitX=0;exitY=0.5;exitDx=0;exitDy=0;entryX=0.5;entryY=1;entryDx=0;entryDy=0;" edge="1" parent="1" source="IK-T9pgVXqQDZMBXlOiV-90" target="IK-T9pgVXqQDZMBXlOiV-56">
          <mxGeometry relative="1" as="geometry">
            <mxPoint x="660" y="945" as="sourcePoint" />
            <mxPoint x="820" y="945" as="targetPoint" />
          </mxGeometry>
        </mxCell>
        <mxCell id="IK-T9pgVXqQDZMBXlOiV-95" value="" style="endArrow=none;html=1;rounded=0;exitX=0;exitY=0.5;exitDx=0;exitDy=0;entryX=0.5;entryY=1;entryDx=0;entryDy=0;" edge="1" parent="1" source="IK-T9pgVXqQDZMBXlOiV-91" target="IK-T9pgVXqQDZMBXlOiV-57">
          <mxGeometry relative="1" as="geometry">
            <mxPoint x="660" y="945" as="sourcePoint" />
            <mxPoint x="820" y="945" as="targetPoint" />
          </mxGeometry>
        </mxCell>
        <mxCell id="IK-T9pgVXqQDZMBXlOiV-96" value="Fesztivál" style="ellipse;shape=doubleEllipse;margin=3;whiteSpace=wrap;html=1;align=center;" vertex="1" parent="1">
          <mxGeometry x="415" y="750" width="100" height="40" as="geometry" />
        </mxCell>
        <mxCell id="IK-T9pgVXqQDZMBXlOiV-97" value="Tulajdonos" style="ellipse;shape=doubleEllipse;margin=3;whiteSpace=wrap;html=1;align=center;" vertex="1" parent="1">
          <mxGeometry x="870" y="755" width="100" height="40" as="geometry" />
        </mxCell>
        <mxCell id="IK-T9pgVXqQDZMBXlOiV-98" value="Fellépő" style="ellipse;shape=doubleEllipse;margin=3;whiteSpace=wrap;html=1;align=center;" vertex="1" parent="1">
          <mxGeometry x="1335" y="757.5" width="100" height="40" as="geometry" />
        </mxCell>
        <mxCell id="IK-T9pgVXqQDZMBXlOiV-99" value="" style="rounded=0;whiteSpace=wrap;html=1;rotation=90;" vertex="1" parent="1">
          <mxGeometry x="1850" y="917.5" width="90" height="40" as="geometry" />
        </mxCell>
        <mxCell id="IK-T9pgVXqQDZMBXlOiV-100" value="" style="endArrow=none;html=1;rounded=0;entryX=0;entryY=0.5;entryDx=0;entryDy=0;exitX=0.5;exitY=1;exitDx=0;exitDy=0;" edge="1" parent="1" source="IK-T9pgVXqQDZMBXlOiV-31" target="IK-T9pgVXqQDZMBXlOiV-99">
          <mxGeometry relative="1" as="geometry">
            <mxPoint x="1610" y="947.5" as="sourcePoint" />
            <mxPoint x="1770" y="947.5" as="targetPoint" />
          </mxGeometry>
        </mxCell>
        <mxCell id="IK-T9pgVXqQDZMBXlOiV-101" value="Alkalmazott" style="ellipse;shape=doubleEllipse;margin=3;whiteSpace=wrap;html=1;align=center;" vertex="1" parent="1">
          <mxGeometry x="1775" y="757.5" width="100" height="40" as="geometry" />
        </mxCell>
        <mxCell id="IK-T9pgVXqQDZMBXlOiV-102" value="" style="rounded=0;whiteSpace=wrap;html=1;rotation=90;" vertex="1" parent="1">
          <mxGeometry x="2295" y="910" width="90" height="40" as="geometry" />
        </mxCell>
        <mxCell id="IK-T9pgVXqQDZMBXlOiV-103" value="" style="endArrow=none;html=1;rounded=0;entryX=0;entryY=0.5;entryDx=0;entryDy=0;exitX=0.5;exitY=1;exitDx=0;exitDy=0;" edge="1" parent="1" source="IK-T9pgVXqQDZMBXlOiV-24" target="IK-T9pgVXqQDZMBXlOiV-102">
          <mxGeometry relative="1" as="geometry">
            <mxPoint x="2090" y="890" as="sourcePoint" />
            <mxPoint x="2250" y="890" as="targetPoint" />
          </mxGeometry>
        </mxCell>
        <mxCell id="IK-T9pgVXqQDZMBXlOiV-104" value="Bár" style="ellipse;shape=doubleEllipse;margin=3;whiteSpace=wrap;html=1;align=center;" vertex="1" parent="1">
          <mxGeometry x="2220" y="740" width="100" height="40" as="geometry" />
        </mxCell>
        <mxCell id="IK-T9pgVXqQDZMBXlOiV-105" value="K_ID" style="shape=rhombus;perimeter=rhombusPerimeter;whiteSpace=wrap;html=1;align=center;fontStyle=4" vertex="1" parent="1">
          <mxGeometry x="2460" y="825" width="120" height="60" as="geometry" />
        </mxCell>
        <mxCell id="IK-T9pgVXqQDZMBXlOiV-106" value="Kérdező" style="ellipse;whiteSpace=wrap;html=1;align=center;" vertex="1" parent="1">
          <mxGeometry x="2590" y="840" width="60" height="30" as="geometry" />
        </mxCell>
        <mxCell id="IK-T9pgVXqQDZMBXlOiV-107" value="" style="endArrow=none;html=1;rounded=0;exitX=0.5;exitY=1;exitDx=0;exitDy=0;entryX=0.5;entryY=0;entryDx=0;entryDy=0;" edge="1" parent="1" target="IK-T9pgVXqQDZMBXlOiV-106">
          <mxGeometry relative="1" as="geometry">
            <mxPoint x="2620" y="780.0000000000002" as="sourcePoint" />
            <mxPoint x="2890" y="440" as="targetPoint" />
          </mxGeometry>
        </mxCell>
        <mxCell id="IK-T9pgVXqQDZMBXlOiV-108" value="" style="endArrow=none;html=1;rounded=0;exitX=0.5;exitY=1;exitDx=0;exitDy=0;entryX=0.5;entryY=0;entryDx=0;entryDy=0;" edge="1" parent="1" target="IK-T9pgVXqQDZMBXlOiV-105">
          <mxGeometry relative="1" as="geometry">
            <mxPoint x="2620" y="780.0000000000002" as="sourcePoint" />
            <mxPoint x="2890" y="440" as="targetPoint" />
          </mxGeometry>
        </mxCell>
        <mxCell id="IK-T9pgVXqQDZMBXlOiV-109" value="" style="rounded=0;whiteSpace=wrap;html=1;rotation=90;" vertex="1" parent="1">
          <mxGeometry x="2575" y="910" width="90" height="40" as="geometry" />
        </mxCell>
        <mxCell id="IK-T9pgVXqQDZMBXlOiV-110" value="" style="endArrow=none;html=1;rounded=0;exitX=0;exitY=0.5;exitDx=0;exitDy=0;" edge="1" parent="1" source="IK-T9pgVXqQDZMBXlOiV-109" target="IK-T9pgVXqQDZMBXlOiV-106">
          <mxGeometry relative="1" as="geometry">
            <mxPoint x="2610" y="920" as="sourcePoint" />
            <mxPoint x="2770" y="920" as="targetPoint" />
          </mxGeometry>
        </mxCell>
        <mxCell id="IK-T9pgVXqQDZMBXlOiV-111" value="Közvélemény" style="ellipse;shape=doubleEllipse;margin=3;whiteSpace=wrap;html=1;align=center;" vertex="1" parent="1">
          <mxGeometry x="2570" y="740" width="100" height="40" as="geometry" />
        </mxCell>
        <mxCell id="IK-T9pgVXqQDZMBXlOiV-112" value="Nyelvtudás" style="ellipse;shape=doubleEllipse;margin=3;whiteSpace=wrap;html=1;align=center;" vertex="1" parent="1">
          <mxGeometry x="2980" y="740" width="100" height="40" as="geometry" />
        </mxCell>
        <mxCell id="IK-T9pgVXqQDZMBXlOiV-113" value="" style="endArrow=none;html=1;rounded=0;exitX=0.5;exitY=1;exitDx=0;exitDy=0;entryX=0;entryY=0.5;entryDx=0;entryDy=0;" edge="1" parent="1" source="IK-T9pgVXqQDZMBXlOiV-36" target="IK-T9pgVXqQDZMBXlOiV-87">
          <mxGeometry relative="1" as="geometry">
            <mxPoint x="3330" y="1017.5" as="sourcePoint" />
            <mxPoint x="3490" y="1017.5" as="targetPoint" />
          </mxGeometry>
        </mxCell>
        <mxCell id="IK-T9pgVXqQDZMBXlOiV-114" value="" style="rounded=0;whiteSpace=wrap;html=1;rotation=90;" vertex="1" parent="1">
          <mxGeometry x="3380" y="910" width="90" height="40" as="geometry" />
        </mxCell>
        <mxCell id="IK-T9pgVXqQDZMBXlOiV-115" value="" style="endArrow=none;html=1;rounded=0;entryX=0.5;entryY=1;entryDx=0;entryDy=0;exitX=0;exitY=0.5;exitDx=0;exitDy=0;" edge="1" parent="1" source="IK-T9pgVXqQDZMBXlOiV-114" target="IK-T9pgVXqQDZMBXlOiV-38">
          <mxGeometry relative="1" as="geometry">
            <mxPoint x="3310" y="967.5" as="sourcePoint" />
            <mxPoint x="3470" y="967.5" as="targetPoint" />
          </mxGeometry>
        </mxCell>
        <mxCell id="IK-T9pgVXqQDZMBXlOiV-116" value="Résztvevő" style="ellipse;shape=doubleEllipse;margin=3;whiteSpace=wrap;html=1;align=center;" vertex="1" parent="1">
          <mxGeometry x="3375" y="740" width="100" height="40" as="geometry" />
        </mxCell>
        <mxCell id="IK-T9pgVXqQDZMBXlOiV-117" value="Fesztivál_ZUYISF" style="ellipse;whiteSpace=wrap;html=1;align=center;" vertex="1" parent="1">
          <mxGeometry x="1990" y="210" width="120" height="50" as="geometry" />
        </mxCell>
        <mxCell id="IK-T9pgVXqQDZMBXlOiV-118" value="" style="endArrow=none;html=1;rounded=0;entryX=0.5;entryY=1;entryDx=0;entryDy=0;exitX=0.5;exitY=0;exitDx=0;exitDy=0;" edge="1" parent="1" source="IK-T9pgVXqQDZMBXlOiV-101" target="IK-T9pgVXqQDZMBXlOiV-117">
          <mxGeometry relative="1" as="geometry">
            <mxPoint x="1850" y="560" as="sourcePoint" />
            <mxPoint x="2010" y="560" as="targetPoint" />
          </mxGeometry>
        </mxCell>
        <mxCell id="IK-T9pgVXqQDZMBXlOiV-119" value="" style="endArrow=none;html=1;rounded=0;entryX=0.5;entryY=1;entryDx=0;entryDy=0;exitX=0.5;exitY=0;exitDx=0;exitDy=0;" edge="1" parent="1" source="IK-T9pgVXqQDZMBXlOiV-104" target="IK-T9pgVXqQDZMBXlOiV-117">
          <mxGeometry relative="1" as="geometry">
            <mxPoint x="1870" y="760" as="sourcePoint" />
            <mxPoint x="2060" y="270" as="targetPoint" />
          </mxGeometry>
        </mxCell>
        <mxCell id="IK-T9pgVXqQDZMBXlOiV-120" value="" style="endArrow=none;html=1;rounded=0;entryX=0.5;entryY=1;entryDx=0;entryDy=0;exitX=0.5;exitY=0;exitDx=0;exitDy=0;" edge="1" parent="1" source="IK-T9pgVXqQDZMBXlOiV-98" target="IK-T9pgVXqQDZMBXlOiV-117">
          <mxGeometry relative="1" as="geometry">
            <mxPoint x="1880" y="770" as="sourcePoint" />
            <mxPoint x="2070" y="280" as="targetPoint" />
          </mxGeometry>
        </mxCell>
        <mxCell id="IK-T9pgVXqQDZMBXlOiV-121" value="" style="endArrow=none;html=1;rounded=0;entryX=0.5;entryY=1;entryDx=0;entryDy=0;exitX=0.5;exitY=0;exitDx=0;exitDy=0;" edge="1" parent="1" source="IK-T9pgVXqQDZMBXlOiV-111" target="IK-T9pgVXqQDZMBXlOiV-117">
          <mxGeometry relative="1" as="geometry">
            <mxPoint x="1890" y="780" as="sourcePoint" />
            <mxPoint x="2080" y="290" as="targetPoint" />
          </mxGeometry>
        </mxCell>
        <mxCell id="IK-T9pgVXqQDZMBXlOiV-122" value="" style="endArrow=none;html=1;rounded=0;entryX=0;entryY=1;entryDx=0;entryDy=0;exitX=0.5;exitY=0;exitDx=0;exitDy=0;" edge="1" parent="1" source="IK-T9pgVXqQDZMBXlOiV-97" target="IK-T9pgVXqQDZMBXlOiV-117">
          <mxGeometry relative="1" as="geometry">
            <mxPoint x="1900" y="790" as="sourcePoint" />
            <mxPoint x="2090" y="300" as="targetPoint" />
          </mxGeometry>
        </mxCell>
        <mxCell id="IK-T9pgVXqQDZMBXlOiV-123" value="" style="endArrow=none;html=1;rounded=0;entryX=0;entryY=0.5;entryDx=0;entryDy=0;exitX=0.5;exitY=0;exitDx=0;exitDy=0;" edge="1" parent="1" source="IK-T9pgVXqQDZMBXlOiV-96" target="IK-T9pgVXqQDZMBXlOiV-117">
          <mxGeometry relative="1" as="geometry">
            <mxPoint x="1910" y="800" as="sourcePoint" />
            <mxPoint x="2100" y="310" as="targetPoint" />
          </mxGeometry>
        </mxCell>
        <mxCell id="IK-T9pgVXqQDZMBXlOiV-124" value="" style="endArrow=none;html=1;rounded=0;entryX=1;entryY=1;entryDx=0;entryDy=0;exitX=0.5;exitY=0;exitDx=0;exitDy=0;" edge="1" parent="1" source="IK-T9pgVXqQDZMBXlOiV-112" target="IK-T9pgVXqQDZMBXlOiV-117">
          <mxGeometry relative="1" as="geometry">
            <mxPoint x="1920" y="810" as="sourcePoint" />
            <mxPoint x="2110" y="320" as="targetPoint" />
          </mxGeometry>
        </mxCell>
        <mxCell id="IK-T9pgVXqQDZMBXlOiV-125" value="" style="endArrow=none;html=1;rounded=0;entryX=1;entryY=0.5;entryDx=0;entryDy=0;exitX=0.5;exitY=0;exitDx=0;exitDy=0;" edge="1" parent="1" source="IK-T9pgVXqQDZMBXlOiV-116" target="IK-T9pgVXqQDZMBXlOiV-117">
          <mxGeometry relative="1" as="geometry">
            <mxPoint x="1930" y="820" as="sourcePoint" />
            <mxPoint x="2120" y="330" as="targetPoint" />
          </mxGeometry>
        </mxCell>
        <mxCell id="IK-T9pgVXqQDZMBXlOiV-126" style="edgeStyle=orthogonalEdgeStyle;rounded=0;orthogonalLoop=1;jettySize=auto;html=1;exitX=0.5;exitY=1;exitDx=0;exitDy=0;dashed=1;entryX=0.5;entryY=1;entryDx=0;entryDy=0;" edge="1" parent="1" source="IK-T9pgVXqQDZMBXlOiV-127" target="IK-T9pgVXqQDZMBXlOiV-2">
          <mxGeometry relative="1" as="geometry">
            <mxPoint x="290" y="910" as="targetPoint" />
            <Array as="points">
              <mxPoint x="1075" y="1030" />
              <mxPoint x="280" y="1030" />
            </Array>
          </mxGeometry>
        </mxCell>
        <mxCell id="IK-T9pgVXqQDZMBXlOiV-127" value="fesztivál" style="shape=rhombus;perimeter=rhombusPerimeter;whiteSpace=wrap;html=1;align=center;" vertex="1" parent="1">
          <mxGeometry x="1040" y="830" width="70" height="60" as="geometry" />
        </mxCell>
        <mxCell id="IK-T9pgVXqQDZMBXlOiV-128" value="" style="endArrow=none;dashed=1;html=1;dashPattern=1 3;strokeWidth=2;rounded=0;" edge="1" parent="1">
          <mxGeometry width="50" height="50" relative="1" as="geometry">
            <mxPoint x="1060.12" y="869.3499999999999" as="sourcePoint" />
            <mxPoint x="1089.8799999999999" y="869.4099999999999" as="targetPoint" />
          </mxGeometry>
        </mxCell>
        <mxCell id="IK-T9pgVXqQDZMBXlOiV-129" value="" style="endArrow=none;html=1;rounded=0;entryX=0.5;entryY=1;entryDx=0;entryDy=0;exitX=0.5;exitY=0;exitDx=0;exitDy=0;" edge="1" parent="1" source="IK-T9pgVXqQDZMBXlOiV-127" target="IK-T9pgVXqQDZMBXlOiV-97">
          <mxGeometry relative="1" as="geometry">
            <mxPoint x="1005" y="855" as="sourcePoint" />
            <mxPoint x="930" y="805" as="targetPoint" />
          </mxGeometry>
        </mxCell>
        <mxCell id="IK-T9pgVXqQDZMBXlOiV-130" style="edgeStyle=orthogonalEdgeStyle;rounded=0;orthogonalLoop=1;jettySize=auto;html=1;exitX=0.5;exitY=1;exitDx=0;exitDy=0;entryX=0;entryY=1;entryDx=0;entryDy=0;dashed=1;" edge="1" parent="1" source="IK-T9pgVXqQDZMBXlOiV-131" target="IK-T9pgVXqQDZMBXlOiV-2">
          <mxGeometry relative="1" as="geometry">
            <Array as="points">
              <mxPoint x="1535" y="1070" />
              <mxPoint x="250" y="1070" />
            </Array>
          </mxGeometry>
        </mxCell>
        <mxCell id="IK-T9pgVXqQDZMBXlOiV-131" value="fesztivál" style="shape=rhombus;perimeter=rhombusPerimeter;whiteSpace=wrap;html=1;align=center;" vertex="1" parent="1">
          <mxGeometry x="1500" y="832.5" width="70" height="60" as="geometry" />
        </mxCell>
        <mxCell id="IK-T9pgVXqQDZMBXlOiV-132" value="" style="endArrow=none;dashed=1;html=1;dashPattern=1 3;strokeWidth=2;rounded=0;" edge="1" parent="1">
          <mxGeometry width="50" height="50" relative="1" as="geometry">
            <mxPoint x="1520.12" y="871.8499999999999" as="sourcePoint" />
            <mxPoint x="1549.8799999999999" y="871.9099999999999" as="targetPoint" />
          </mxGeometry>
        </mxCell>
        <mxCell id="IK-T9pgVXqQDZMBXlOiV-133" value="" style="endArrow=none;html=1;rounded=0;exitX=0.5;exitY=1;exitDx=0;exitDy=0;entryX=0.5;entryY=0;entryDx=0;entryDy=0;" edge="1" parent="1" source="IK-T9pgVXqQDZMBXlOiV-98" target="IK-T9pgVXqQDZMBXlOiV-131">
          <mxGeometry relative="1" as="geometry">
            <mxPoint x="1395" y="807.5" as="sourcePoint" />
            <mxPoint x="1465" y="858" as="targetPoint" />
          </mxGeometry>
        </mxCell>
        <mxCell id="IK-T9pgVXqQDZMBXlOiV-134" style="edgeStyle=orthogonalEdgeStyle;rounded=0;orthogonalLoop=1;jettySize=auto;html=1;exitX=0.5;exitY=1;exitDx=0;exitDy=0;entryX=0.5;entryY=1;entryDx=0;entryDy=0;dashed=1;" edge="1" parent="1" source="IK-T9pgVXqQDZMBXlOiV-135" target="IK-T9pgVXqQDZMBXlOiV-3">
          <mxGeometry relative="1" as="geometry" />
        </mxCell>
        <mxCell id="IK-T9pgVXqQDZMBXlOiV-135" value="munkahely" style="shape=rhombus;perimeter=rhombusPerimeter;whiteSpace=wrap;html=1;align=center;" vertex="1" parent="1">
          <mxGeometry x="1940" y="832.5" width="70" height="60" as="geometry" />
        </mxCell>
        <mxCell id="IK-T9pgVXqQDZMBXlOiV-136" value="" style="endArrow=none;dashed=1;html=1;dashPattern=1 3;strokeWidth=2;rounded=0;" edge="1" parent="1">
          <mxGeometry width="50" height="50" relative="1" as="geometry">
            <mxPoint x="1960.12" y="871.8499999999999" as="sourcePoint" />
            <mxPoint x="1989.88" y="871.9099999999999" as="targetPoint" />
          </mxGeometry>
        </mxCell>
        <mxCell id="IK-T9pgVXqQDZMBXlOiV-137" value="" style="endArrow=none;html=1;rounded=0;exitX=0.5;exitY=1;exitDx=0;exitDy=0;entryX=0.5;entryY=0;entryDx=0;entryDy=0;" edge="1" parent="1" source="IK-T9pgVXqQDZMBXlOiV-101" target="IK-T9pgVXqQDZMBXlOiV-135">
          <mxGeometry relative="1" as="geometry">
            <mxPoint x="1810" y="940" as="sourcePoint" />
            <mxPoint x="1970" y="940" as="targetPoint" />
          </mxGeometry>
        </mxCell>
        <mxCell id="IK-T9pgVXqQDZMBXlOiV-138" style="edgeStyle=orthogonalEdgeStyle;rounded=0;orthogonalLoop=1;jettySize=auto;html=1;exitX=0.5;exitY=1;exitDx=0;exitDy=0;entryX=0.5;entryY=1;entryDx=0;entryDy=0;dashed=1;" edge="1" parent="1" source="IK-T9pgVXqQDZMBXlOiV-139" target="IK-T9pgVXqQDZMBXlOiV-5">
          <mxGeometry relative="1" as="geometry">
            <Array as="points">
              <mxPoint x="2705" y="990" />
              <mxPoint x="3220" y="990" />
            </Array>
          </mxGeometry>
        </mxCell>
        <mxCell id="IK-T9pgVXqQDZMBXlOiV-139" value="résztvevő" style="shape=rhombus;perimeter=rhombusPerimeter;whiteSpace=wrap;html=1;align=center;" vertex="1" parent="1">
          <mxGeometry x="2670" y="825" width="70" height="60" as="geometry" />
        </mxCell>
        <mxCell id="IK-T9pgVXqQDZMBXlOiV-140" value="" style="endArrow=none;dashed=1;html=1;dashPattern=1 3;strokeWidth=2;rounded=0;" edge="1" parent="1">
          <mxGeometry width="50" height="50" relative="1" as="geometry">
            <mxPoint x="2690.12" y="864.3499999999999" as="sourcePoint" />
            <mxPoint x="2719.88" y="864.4099999999999" as="targetPoint" />
          </mxGeometry>
        </mxCell>
        <mxCell id="IK-T9pgVXqQDZMBXlOiV-141" style="edgeStyle=orthogonalEdgeStyle;rounded=0;orthogonalLoop=1;jettySize=auto;html=1;exitX=0.5;exitY=1;exitDx=0;exitDy=0;entryX=0.5;entryY=1;entryDx=0;entryDy=0;dashed=1;" edge="1" parent="1" source="IK-T9pgVXqQDZMBXlOiV-142" target="IK-T9pgVXqQDZMBXlOiV-6">
          <mxGeometry relative="1" as="geometry" />
        </mxCell>
        <mxCell id="IK-T9pgVXqQDZMBXlOiV-142" value="nyelvtudás" style="shape=rhombus;perimeter=rhombusPerimeter;whiteSpace=wrap;html=1;align=center;" vertex="1" parent="1">
          <mxGeometry x="2760" y="825" width="70" height="60" as="geometry" />
        </mxCell>
        <mxCell id="IK-T9pgVXqQDZMBXlOiV-143" value="" style="endArrow=none;dashed=1;html=1;dashPattern=1 3;strokeWidth=2;rounded=0;" edge="1" parent="1">
          <mxGeometry width="50" height="50" relative="1" as="geometry">
            <mxPoint x="2780.12" y="864.3499999999999" as="sourcePoint" />
            <mxPoint x="2809.88" y="864.4099999999999" as="targetPoint" />
          </mxGeometry>
        </mxCell>
        <mxCell id="IK-T9pgVXqQDZMBXlOiV-144" value="" style="endArrow=none;html=1;rounded=0;exitX=0.5;exitY=1;exitDx=0;exitDy=0;entryX=0.5;entryY=0;entryDx=0;entryDy=0;" edge="1" parent="1" source="IK-T9pgVXqQDZMBXlOiV-111" target="IK-T9pgVXqQDZMBXlOiV-139">
          <mxGeometry relative="1" as="geometry">
            <mxPoint x="2970" y="1030" as="sourcePoint" />
            <mxPoint x="3130" y="1030" as="targetPoint" />
          </mxGeometry>
        </mxCell>
        <mxCell id="IK-T9pgVXqQDZMBXlOiV-145" value="" style="endArrow=none;html=1;rounded=0;exitX=0.5;exitY=1;exitDx=0;exitDy=0;entryX=0.5;entryY=0;entryDx=0;entryDy=0;" edge="1" parent="1" source="IK-T9pgVXqQDZMBXlOiV-111" target="IK-T9pgVXqQDZMBXlOiV-142">
          <mxGeometry relative="1" as="geometry">
            <mxPoint x="2630" y="790" as="sourcePoint" />
            <mxPoint x="2715" y="835" as="targetPoint" />
          </mxGeometry>
        </mxCell>
        <mxCell id="IK-T9pgVXqQDZMBXlOiV-146" style="edgeStyle=orthogonalEdgeStyle;rounded=0;orthogonalLoop=1;jettySize=auto;html=1;exitX=0.5;exitY=1;exitDx=0;exitDy=0;entryX=0;entryY=0;entryDx=0;entryDy=0;dashed=1;" edge="1" parent="1" source="IK-T9pgVXqQDZMBXlOiV-147" target="IK-T9pgVXqQDZMBXlOiV-2">
          <mxGeometry relative="1" as="geometry">
            <Array as="points">
              <mxPoint x="3745" y="1110" />
              <mxPoint x="180" y="1110" />
              <mxPoint x="180" y="800" />
              <mxPoint x="250" y="800" />
            </Array>
          </mxGeometry>
        </mxCell>
        <mxCell id="IK-T9pgVXqQDZMBXlOiV-147" value="fesztivál" style="shape=rhombus;perimeter=rhombusPerimeter;whiteSpace=wrap;html=1;align=center;" vertex="1" parent="1">
          <mxGeometry x="3710" y="827.5" width="70" height="60" as="geometry" />
        </mxCell>
        <mxCell id="IK-T9pgVXqQDZMBXlOiV-148" value="" style="endArrow=none;dashed=1;html=1;dashPattern=1 3;strokeWidth=2;rounded=0;" edge="1" parent="1">
          <mxGeometry width="50" height="50" relative="1" as="geometry">
            <mxPoint x="3730.12" y="866.8499999999999" as="sourcePoint" />
            <mxPoint x="3759.88" y="866.9099999999999" as="targetPoint" />
          </mxGeometry>
        </mxCell>
        <mxCell id="IK-T9pgVXqQDZMBXlOiV-149" value="" style="endArrow=none;html=1;rounded=0;exitX=0.5;exitY=1;exitDx=0;exitDy=0;entryX=0.5;entryY=0;entryDx=0;entryDy=0;" edge="1" parent="1" source="IK-T9pgVXqQDZMBXlOiV-116" target="IK-T9pgVXqQDZMBXlOiV-147">
          <mxGeometry relative="1" as="geometry">
            <mxPoint x="3550" y="990" as="sourcePoint" />
            <mxPoint x="3710" y="990" as="targetPoint" />
          </mxGeometry>
        </mxCell>
        <mxCell id="IK-T9pgVXqQDZMBXlOiV-150" style="edgeStyle=orthogonalEdgeStyle;rounded=0;orthogonalLoop=1;jettySize=auto;html=1;exitX=0.5;exitY=1;exitDx=0;exitDy=0;entryX=0;entryY=0.5;entryDx=0;entryDy=0;dashed=1;" edge="1" parent="1" source="IK-T9pgVXqQDZMBXlOiV-151" target="IK-T9pgVXqQDZMBXlOiV-2">
          <mxGeometry relative="1" as="geometry">
            <Array as="points">
              <mxPoint x="2415" y="1090" />
              <mxPoint x="200" y="1090" />
              <mxPoint x="200" y="855" />
            </Array>
          </mxGeometry>
        </mxCell>
        <mxCell id="IK-T9pgVXqQDZMBXlOiV-151" value="fesztivál" style="shape=rhombus;perimeter=rhombusPerimeter;whiteSpace=wrap;html=1;align=center;" vertex="1" parent="1">
          <mxGeometry x="2380" y="830" width="70" height="60" as="geometry" />
        </mxCell>
        <mxCell id="IK-T9pgVXqQDZMBXlOiV-152" value="" style="endArrow=none;dashed=1;html=1;dashPattern=1 3;strokeWidth=2;rounded=0;" edge="1" parent="1">
          <mxGeometry width="50" height="50" relative="1" as="geometry">
            <mxPoint x="2400.12" y="869.3499999999999" as="sourcePoint" />
            <mxPoint x="2429.88" y="869.4099999999999" as="targetPoint" />
          </mxGeometry>
        </mxCell>
        <mxCell id="IK-T9pgVXqQDZMBXlOiV-153" value="" style="endArrow=none;html=1;rounded=0;exitX=0.5;exitY=1;exitDx=0;exitDy=0;entryX=0.5;entryY=0;entryDx=0;entryDy=0;" edge="1" parent="1" source="IK-T9pgVXqQDZMBXlOiV-104" target="IK-T9pgVXqQDZMBXlOiV-151">
          <mxGeometry relative="1" as="geometry">
            <mxPoint x="2360" y="910" as="sourcePoint" />
            <mxPoint x="2520" y="910" as="targetPoint" />
          </mxGeometry>
        </mxCell>
      </root>
    </mxGraphModel>
  </diagram>
</mxfile>
